<svg id="Capa_1" data-name="Capa 1" xmlns="http://www.w3.org/2000/svg" xmlns:xlink="http://www.w3.org/1999/xlink" viewBox="0 0 122.94 122.15"><defs><style>.cls-1{fill:none;}.cls-2{clip-path:url(#clip-path);}.cls-3{fill:#eea317;}.cls-4{fill:#d6324a;}.cls-5{fill:#0099bd;}.cls-6{fill:#3fb2cd;}.cls-7{fill:#42b888;}.cls-8{fill:#4c4d4f;}</style><clipPath id="clip-path" transform="translate(-889.53 -1188.8)"><rect class="cls-1" x="889.48" y="1188.75" width="123.75" height="122.25"/></clipPath></defs><title>logopestaña</title><g class="cls-2"><path class="cls-3" d="M889.53,1239c1.25-.8,1-2.23,1.26-3.35,2.82-11.18,9-20.15,17.75-27.48a16.11,16.11,0,0,1,20.07-.64c6.28,4.59,6.84,12.33,1.3,17.76a32.61,32.61,0,0,1-6.33,4.62c-20.56,12.12-26.73,25.48-22.39,48.6-1.39.55-1.63-.75-2.1-1.43a55.35,55.35,0,0,1-8.16-17.92c-.32-1.25-.1-2.77-1.4-3.67Z" transform="translate(-889.53 -1188.8)"/><path class="cls-4" d="M961.47,1188.8c1.06,1.31,2.71,1,4.06,1.32,11.18,2.9,20.09,9.23,27.32,18a16.11,16.11,0,0,1-.73,20.92c-4.92,5.21-11.42,5.34-16.47.3a29.94,29.94,0,0,1-5.56-7.93c-8.42-16.85-27.41-26.3-46.49-20.7a10.35,10.35,0,0,1-2.12,0c3.18-3.14,6.67-4.84,10.07-6.7,4.69-2.57,10-3.34,14.93-5.22Z" transform="translate(-889.53 -1188.8)"/><path class="cls-5" d="M941.24,1311c-1.4-1.49-3.4-1.17-5.11-1.65-10.79-3.07-19.53-9.24-26.63-17.76a16.25,16.25,0,0,1,.13-20.39c4.46-5.5,11.63-6,16.7-1.11a31.55,31.55,0,0,1,6.08,8.47c8.69,16.94,27.9,25.75,46.35,20.25.44-.13.91-.48,1.39.13.13,1.19-1,1.49-1.75,2a55.36,55.36,0,0,1-21.82,9.23c-.68.12-1.56-.17-1.86.82h-3a15.12,15.12,0,0,0-7.5,0Z" transform="translate(-889.53 -1188.8)"/><path class="cls-6" d="M944.23,1311a8.45,8.45,0,0,1,7.5,0Z" transform="translate(-889.53 -1188.8)"/><path class="cls-7" d="M999.78,1217.26c8.11,10.48,12.56,21.16,12.69,33.47.17,16.09-6.79,28.9-18.63,39.2a15.72,15.72,0,0,1-21.42-1.15c-4.42-4.62-4.48-10.73-.15-15.45a33.86,33.86,0,0,1,9-6.68c16.39-9,24.79-29.33,18.57-46.77A12.65,12.65,0,0,1,999.78,1217.26Z" transform="translate(-889.53 -1188.8)"/><path class="cls-8" d="M951.22,1237.85A12.35,12.35,0,1,1,938.87,1250,12,12,0,0,1,951.22,1237.85Z" transform="translate(-889.53 -1188.8)"/></g></svg>