<svg id="Layer_1" data-name="Layer 1" xmlns="http://www.w3.org/2000/svg" viewBox="0 0 545.33 122.01"><defs><style>.cls-1{fill:#4d4d4f;}.cls-2{fill:#d7364a;}.cls-3{fill:#eea317;}.cls-4{fill:#0099bd;}.cls-5{fill:#47b788;}</style></defs><path class="cls-1" d="M196.26,101.44v-.27c0-14.19,11.67-21.76,28.66-21.76a71.34,71.34,0,0,1,20.61,2.87V79.94c0-12.12-7.39-18.38-20-18.38a41.93,41.93,0,0,0-17.38,3.77,4.88,4.88,0,0,1-1.81.4,4.44,4.44,0,0,1-4.41-4.3,4.61,4.61,0,0,1,2.72-4.17,52.56,52.56,0,0,1,21.91-4.57c9.46,0,16.72,2.48,21.65,7.44,4.54,4.56,6.87,11.08,6.87,19.67v36.89a4.76,4.76,0,0,1-4.8,5,4.62,4.62,0,0,1-4.79-4.7v-6.12c-4.67,6.12-12.45,11.6-24.24,11.6C208.84,122.43,196.26,115.26,196.26,101.44Zm49.39-5.21V89.71A69.6,69.6,0,0,0,226,86.84c-12.57,0-19.57,5.48-19.57,13.94v.27c0,8.47,7.77,13.42,16.85,13.42C235.55,114.47,245.65,106.91,245.65,96.23Z" transform="translate(-56.98 -39.3)"/><path class="cls-1" d="M259.27,87.62v-.26c0-19,14.78-35.18,34.36-35.18,11.15,0,18.66,4.3,24.63,9.78a4.72,4.72,0,0,1,1.55,3.51A4.79,4.79,0,0,1,315,70.29a5.15,5.15,0,0,1-3.24-1.17C307,64.69,301.54,61,293.5,61c-13.62,0-24,11.6-24,26.05v.27c0,14.6,10.63,26.2,24.62,26.2,7.66,0,13.75-3.52,18.68-8.21a3.92,3.92,0,0,1,2.85-1.3,4.7,4.7,0,0,1,4.54,4.56,4.49,4.49,0,0,1-1.31,3.12c-6.34,6.4-14,10.83-25.27,10.83C274.05,122.56,259.27,106.52,259.27,87.62Z" transform="translate(-56.98 -39.3)"/><path class="cls-1" d="M381.92,116.56a4.93,4.93,0,1,1-9.86,0v-7.3c-4.53,7.3-11.4,13.17-22.94,13.17-16.21,0-25.67-11-25.67-27V58A4.89,4.89,0,0,1,328.38,53,5.07,5.07,0,0,1,333.43,58V93c0,12.51,6.74,20.33,18.54,20.33,11.41,0,20.09-8.47,20.09-21.12V58A4.89,4.89,0,0,1,377,53,5,5,0,0,1,381.92,58Z" transform="translate(-56.98 -39.3)"/><path class="cls-1" d="M391.39,58A5,5,0,0,1,396.31,53,5,5,0,0,1,401.37,58V65c4.41-6.65,10.37-12.78,21.66-12.78,10.88,0,17.88,5.86,21.51,13.42,4.8-7.43,11.92-13.42,23.6-13.42,15.41,0,24.9,10.42,24.9,27.1v37.28a5,5,0,1,1-10,0V81.63c0-13-6.49-20.33-17.38-20.33-10.1,0-18.41,7.56-18.41,20.85v34.41a5,5,0,1,1-10,0V81.37c0-12.64-6.61-20.07-17.24-20.07s-18.67,8.86-18.67,21.24v34a4.89,4.89,0,0,1-4.92,5.09,5,5,0,0,1-5.06-5.09Z" transform="translate(-56.98 -39.3)"/><path class="cls-1" d="M496.67,101.44v-.27c0-14.19,11.67-21.76,28.65-21.76a71.34,71.34,0,0,1,20.61,2.87V79.94c0-12.12-7.39-18.38-20-18.38a41.91,41.91,0,0,0-17.37,3.77,4.83,4.83,0,0,1-1.8.4,4.43,4.43,0,0,1-4.41-4.3,4.59,4.59,0,0,1,2.72-4.17A52.48,52.48,0,0,1,527,52.69c9.46,0,16.73,2.48,21.65,7.44,4.54,4.56,6.87,11.08,6.87,19.67v36.89a4.76,4.76,0,0,1-4.79,5,4.62,4.62,0,0,1-4.8-4.7v-6.12c-4.67,6.12-12.45,11.6-24.24,11.6C509.25,122.43,496.67,115.26,496.67,101.44Zm49.39-5.21V89.71a69.73,69.73,0,0,0-19.71-2.87c-12.57,0-19.56,5.48-19.56,13.94v.27c0,8.47,7.77,13.42,16.84,13.42C535.94,114.47,546.06,106.91,546.06,96.23Z" transform="translate(-56.98 -39.3)"/><path class="cls-1" d="M563.82,58A5.06,5.06,0,0,1,568.76,53a5,5,0,0,1,5,5.08V70.68c4.92-11.2,14.65-18,23.07-18a4.82,4.82,0,0,1,4.93,5.09,5,5,0,0,1-4.41,5.08c-13,1.57-23.59,11.34-23.59,30.76v22.94a5,5,0,1,1-10,0Z" transform="translate(-56.98 -39.3)"/><path class="cls-1" d="M196.35,147.15l4.29-9.62a1.27,1.27,0,0,1,1.21-.82h.1a1.25,1.25,0,0,1,1.2.82l4.29,9.62a.88.88,0,0,1,.12.43,1,1,0,0,1-1,1,1,1,0,0,1-1-.71l-.94-2.17h-5.6l-1,2.23a1,1,0,0,1-.94.65.93.93,0,0,1-.94-.94A1,1,0,0,1,196.35,147.15Zm7.54-3.29-2-4.69-2,4.69Z" transform="translate(-56.98 -39.3)"/><path class="cls-1" d="M209.27,143.55V137.8a1,1,0,0,1,1-1,1,1,0,0,1,1,1v5.66c0,2.16,1.11,3.31,2.92,3.31s2.9-1.09,2.9-3.22V137.8a1,1,0,1,1,2,0v5.65c0,3.46-1.94,5.2-4.95,5.2S209.27,146.91,209.27,143.55Z" transform="translate(-56.98 -39.3)"/><path class="cls-1" d="M224.77,138.76H222a.95.95,0,0,1,0-1.89h7.67a.95.95,0,0,1,0,1.89h-2.82v8.78a1,1,0,0,1-2,0Z" transform="translate(-56.98 -39.3)"/><path class="cls-1" d="M231.48,142.7v0a6,6,0,0,1,12.07,0v0a6,6,0,0,1-12.07,0Zm9.94,0v0a4,4,0,0,0-3.92-4.13,3.91,3.91,0,0,0-3.89,4.1v0a4,4,0,0,0,3.93,4.11A3.89,3.89,0,0,0,241.42,142.7Z" transform="translate(-56.98 -39.3)"/><path class="cls-1" d="M246,137.9a1,1,0,0,1,1-1h4.12a4.67,4.67,0,0,1,3.33,1.15,3.56,3.56,0,0,1,1,2.51v0a3.42,3.42,0,0,1-2.62,3.46l2.2,2.79a1.22,1.22,0,0,1,.33.79,1,1,0,0,1-1,.94,1.18,1.18,0,0,1-1-.53l-2.8-3.6H248v3.12a1,1,0,0,1-2,0Zm5,4.72c1.45,0,2.37-.76,2.37-1.94v0c0-1.24-.89-1.91-2.38-1.91h-3v3.89Z" transform="translate(-56.98 -39.3)"/><path class="cls-1" d="M258,137.8a1,1,0,1,1,2,0v9.74a1,1,0,0,1-2,0Z" transform="translate(-56.98 -39.3)"/><path class="cls-1" d="M263.16,137.9a1,1,0,0,1,1-1h3.28a5.77,5.77,0,0,1,6.13,5.77v0a5.8,5.8,0,0,1-6.13,5.8h-3.28a1,1,0,0,1-1-1Zm4.3,8.71a3.76,3.76,0,0,0,4-3.91v0a3.79,3.79,0,0,0-4-3.94h-2.28v7.88Z" transform="translate(-56.98 -39.3)"/><path class="cls-1" d="M274.81,147.15l4.29-9.62a1.28,1.28,0,0,1,1.21-.82h.1a1.27,1.27,0,0,1,1.21.82l4.28,9.62a.78.78,0,0,1,.12.43,1,1,0,0,1-1,1,1.05,1.05,0,0,1-1-.71l-.93-2.17h-5.61l-1,2.23a1,1,0,0,1-.94.65.93.93,0,0,1-.94-.94A1,1,0,0,1,274.81,147.15Zm7.55-3.29-2-4.69-2,4.69Z" transform="translate(-56.98 -39.3)"/><path class="cls-1" d="M288.22,137.9a1,1,0,0,1,1-1h3.28a5.77,5.77,0,0,1,6.13,5.77v0a5.8,5.8,0,0,1-6.13,5.8h-3.28a1,1,0,0,1-1-1Zm4.3,8.71a3.76,3.76,0,0,0,4-3.91v0a3.79,3.79,0,0,0-4-3.94h-2.28v7.88Z" transform="translate(-56.98 -39.3)"/><path class="cls-1" d="M306.06,137.9a1,1,0,0,1,1-1h3.28a5.77,5.77,0,0,1,6.13,5.77v0a5.79,5.79,0,0,1-6.13,5.8h-3.28a1,1,0,0,1-1-1Zm4.3,8.71a3.76,3.76,0,0,0,4-3.91v0a3.79,3.79,0,0,0-4-3.94h-2.28v7.88Z" transform="translate(-56.98 -39.3)"/><path class="cls-1" d="M319,147.44V137.9a1,1,0,0,1,1-1h6.7a.91.91,0,0,1,.91.91.9.9,0,0,1-.91.91H321v3h5a.92.92,0,0,1,.9.93.89.89,0,0,1-.9.89h-5v3.12h5.78a.91.91,0,0,1,0,1.82H320A1,1,0,0,1,319,147.44Z" transform="translate(-56.98 -39.3)"/><path class="cls-1" d="M334.43,142.7v0a5.85,5.85,0,0,1,5.95-6,6,6,0,0,1,3.95,1.3,1,1,0,0,1,.4.82,1,1,0,0,1-1,1,1,1,0,0,1-.61-.2,4.16,4.16,0,0,0-2.76-1.05,3.89,3.89,0,0,0-3.8,4.1v0a3.89,3.89,0,0,0,3.8,4.11,4.15,4.15,0,0,0,2.89-1.11.92.92,0,0,1,.61-.24,1,1,0,0,1,1,.95,1,1,0,0,1-.33.73,5.91,5.91,0,0,1-4.19,1.55A5.81,5.81,0,0,1,334.43,142.7Z" transform="translate(-56.98 -39.3)"/><path class="cls-1" d="M346.93,143.55V137.8a1,1,0,1,1,2,0v5.66c0,2.16,1.1,3.31,2.91,3.31s2.9-1.09,2.9-3.22V137.8a1,1,0,0,1,1-1,1,1,0,0,1,1,1v5.65c0,3.46-1.94,5.2-5,5.2S346.93,146.91,346.93,143.55Z" transform="translate(-56.98 -39.3)"/><path class="cls-1" d="M359.59,147.44V137.9a1,1,0,0,1,1-1h6.71a.92.92,0,0,1,.91.91.91.91,0,0,1-.91.91h-5.7v3h5a.92.92,0,0,1,.9.93.89.89,0,0,1-.9.89h-5v3.12h5.78a.91.91,0,1,1,0,1.82h-6.79A1,1,0,0,1,359.59,147.44Z" transform="translate(-56.98 -39.3)"/><path class="cls-1" d="M370.64,137.83a1,1,0,0,1,1-1h.22a1.27,1.27,0,0,1,1.06.6l5.76,7.51v-7.13a1,1,0,1,1,2,0v9.75a1,1,0,0,1-1,1h-.08a1.27,1.27,0,0,1-1.05-.62l-5.94-7.72v7.36a1,1,0,0,1-2,0Z" transform="translate(-56.98 -39.3)"/><path class="cls-1" d="M383.15,142.7v0a5.85,5.85,0,0,1,6-6,6,6,0,0,1,4,1.3,1,1,0,0,1,.39.82,1,1,0,0,1-1,1,1,1,0,0,1-.61-.2,4.13,4.13,0,0,0-2.74-1.05,3.9,3.9,0,0,0-3.82,4.1v0a3.91,3.91,0,0,0,3.82,4.11,4.12,4.12,0,0,0,2.88-1.11.94.94,0,0,1,.61-.24,1,1,0,0,1,.62,1.68,6,6,0,0,1-10.05-4.41Z" transform="translate(-56.98 -39.3)"/><path class="cls-1" d="M395.17,147.15l4.29-9.62a1.27,1.27,0,0,1,1.21-.82h.1a1.27,1.27,0,0,1,1.21.82l4.28,9.62a.88.88,0,0,1,.12.43,1,1,0,0,1-.95,1,1,1,0,0,1-1-.71l-.94-2.17h-5.61l-1,2.23a1,1,0,0,1-.94.65.93.93,0,0,1-.94-.94A1,1,0,0,1,395.17,147.15Zm7.55-3.29-2-4.69-2,4.69Z" transform="translate(-56.98 -39.3)"/><path class="cls-1" d="M413.52,137.83a1,1,0,0,1,1-1h.21a1.09,1.09,0,0,1,.95.55l3.49,5.51,3.51-5.53a1,1,0,0,1,.93-.53h.21a1,1,0,0,1,1,1v9.71a1,1,0,0,1-1,1,1,1,0,0,1-1-1v-7L420,144.84a.94.94,0,0,1-1.69,0l-2.81-4.22v6.94a1,1,0,0,1-2,0Z" transform="translate(-56.98 -39.3)"/><path class="cls-1" d="M427.17,147.15l4.29-9.62a1.27,1.27,0,0,1,1.21-.82h.1a1.27,1.27,0,0,1,1.21.82l4.28,9.62a.78.78,0,0,1,.12.43,1,1,0,0,1-1,1,1.05,1.05,0,0,1-1-.71l-.94-2.17h-5.6l-1,2.23a1,1,0,0,1-.94.65.93.93,0,0,1-.81-1.4Zm7.55-3.29-2-4.69-2,4.69Z" transform="translate(-56.98 -39.3)"/><path class="cls-1" d="M442.09,138.76h-2.8a.95.95,0,0,1,0-1.89H447a.95.95,0,0,1,0,1.89h-2.81v8.78a1,1,0,0,1-2.05,0Z" transform="translate(-56.98 -39.3)"/><path class="cls-1" d="M448,147.15l4.29-9.62a1.28,1.28,0,0,1,1.21-.82h.1a1.27,1.27,0,0,1,1.21.82l4.29,9.62a.86.86,0,0,1,.11.43,1,1,0,0,1-1,1,1,1,0,0,1-1-.71l-.94-2.17h-5.61l-1,2.23a1,1,0,0,1-.94.65.93.93,0,0,1-.94-.94A1,1,0,0,1,448,147.15Zm7.55-3.29-2-4.69-2,4.69Z" transform="translate(-56.98 -39.3)"/><path class="cls-1" d="M461.36,137.83a1,1,0,0,1,1-1h.22a1.28,1.28,0,0,1,1.05.6l5.77,7.51v-7.13a1,1,0,0,1,1-1,1,1,0,0,1,1,1v9.75a1,1,0,0,1-1,1h-.08a1.28,1.28,0,0,1-1.05-.62l-5.94-7.72v7.36a1,1,0,0,1-1,1,1,1,0,0,1-1-1Z" transform="translate(-56.98 -39.3)"/><path class="cls-1" d="M473.91,147.58v-.05a1.37,1.37,0,0,1,.39-.95l6.49-7.91H475a.89.89,0,0,1-.89-.89.91.91,0,0,1,.89-.91h7.58a.91.91,0,0,1,.9.9v0a1.45,1.45,0,0,1-.36.95l-6.51,7.9h6a.92.92,0,0,1,.9.92.9.9,0,0,1-.9.89h-7.8A.93.93,0,0,1,473.91,147.58Z" transform="translate(-56.98 -39.3)"/><path class="cls-1" d="M485.24,147.15l4.29-9.62a1.27,1.27,0,0,1,1.21-.82h.1a1.28,1.28,0,0,1,1.21.82l4.28,9.62a.88.88,0,0,1,.12.43,1,1,0,0,1-1,1,1,1,0,0,1-1-.71l-.93-2.17H488l-1,2.23a1,1,0,0,1-.94.65.93.93,0,0,1-.94-.94A1,1,0,0,1,485.24,147.15Zm7.55-3.29-2-4.69-2,4.69Z" transform="translate(-56.98 -39.3)"/><path class="cls-1" d="M503.59,137.9a1,1,0,0,1,1-1h4.12a4.67,4.67,0,0,1,3.33,1.15,3.56,3.56,0,0,1,1,2.51v0A3.43,3.43,0,0,1,510.4,144l2.21,2.79a1.22,1.22,0,0,1,.33.79,1,1,0,0,1-1,.94,1.17,1.17,0,0,1-1-.53l-2.8-3.6h-2.55v3.12a1,1,0,0,1-2,0Zm5,4.72c1.46,0,2.38-.76,2.38-1.94v0c0-1.24-.89-1.91-2.39-1.91h-2.95v3.89Z" transform="translate(-56.98 -39.3)"/><path class="cls-1" d="M515.62,137.8a1,1,0,1,1,2,0v9.74a1,1,0,0,1-2,0Z" transform="translate(-56.98 -39.3)"/><path class="cls-1" d="M520.08,147.15l4.28-9.62a1.29,1.29,0,0,1,1.22-.82h.1a1.25,1.25,0,0,1,1.2.82l4.28,9.62a.78.78,0,0,1,.12.43,1,1,0,0,1-.95,1,1,1,0,0,1-1-.71l-.94-2.17h-5.6l-1,2.23a1,1,0,0,1-.94.65.93.93,0,0,1-.94-.94A1.06,1.06,0,0,1,520.08,147.15Zm7.55-3.29-2-4.69-2,4.69Z" transform="translate(-56.98 -39.3)"/><path class="cls-1" d="M532.48,142.7v0a5.85,5.85,0,0,1,5.95-6,6,6,0,0,1,4,1.3,1,1,0,0,1,.4.82,1,1,0,0,1-1,1,1,1,0,0,1-.61-.2,4.16,4.16,0,0,0-2.75-1.05,3.9,3.9,0,0,0-3.81,4.1v0a3.9,3.9,0,0,0,3.81,4.11,4.12,4.12,0,0,0,2.88-1.11.94.94,0,0,1,.62-.24,1,1,0,0,1,1,.95,1,1,0,0,1-.33.73,5.88,5.88,0,0,1-4.19,1.55A5.81,5.81,0,0,1,532.48,142.7Z" transform="translate(-56.98 -39.3)"/><path class="cls-1" d="M545.16,137.8a1,1,0,1,1,2,0v3.89h5.5V137.8a1,1,0,1,1,2,0v9.74a1,1,0,0,1-2,0v-4h-5.5v4a1,1,0,0,1-2,0Z" transform="translate(-56.98 -39.3)"/><path class="cls-1" d="M557.5,143.55V137.8a1,1,0,1,1,2,0v5.66c0,2.16,1.1,3.31,2.92,3.31s2.9-1.09,2.9-3.22V137.8a1,1,0,1,1,2,0v5.65c0,3.46-2,5.2-5,5.2S557.5,146.91,557.5,143.55Z" transform="translate(-56.98 -39.3)"/><path class="cls-1" d="M570.17,147.44V137.9a1,1,0,0,1,1-1h6.7a.91.91,0,0,1,.91.91.9.9,0,0,1-.91.91h-5.7v3h5a.92.92,0,0,1,.91.93.9.9,0,0,1-.91.89h-5v3.12H578a.91.91,0,0,1,0,1.82h-6.79A1,1,0,0,1,570.17,147.44Z" transform="translate(-56.98 -39.3)"/><path class="cls-1" d="M581.21,137.8a1,1,0,1,1,2,0v8.81h5.22a.93.93,0,0,1,0,1.86h-6.22a1,1,0,0,1-1-1Z" transform="translate(-56.98 -39.3)"/><path class="cls-1" d="M590.25,142.7v0a6,6,0,0,1,12.06,0v0a6,6,0,0,1-12.06,0Zm9.93,0v0a4,4,0,0,0-3.92-4.13,3.91,3.91,0,0,0-3.89,4.1v0a4,4,0,0,0,3.92,4.11A3.89,3.89,0,0,0,600.18,142.7Z" transform="translate(-56.98 -39.3)"/><path class="cls-2" d="M155.56,82.42c-7.26,3.1-12.08-1.34-16.05-7.48-2.45-3.78-4.2-8.35-9-13.28A39.24,39.24,0,0,0,88.16,52,10.44,10.44,0,0,1,91,49.46c21.43-15.15,49.8-14.52,69.8,9.83,3.54,5.79,3.13,8.59,2.72,11.8C163.18,74.06,161,80.11,155.56,82.42Z" transform="translate(-56.98 -39.3)"/><path class="cls-3" d="M100.14,63.3c3.06,7.33-1.43,12.14-7.56,16.07-3.8,2.46-8.34,4.17-13.28,8.93a39.76,39.76,0,0,0-9.94,42.53,10.56,10.56,0,0,1-2.51-2.89C51.94,106.3,52.79,77.75,77.19,57.82,83,54.34,85.75,54.75,89,55.23,91.89,55.59,97.88,57.85,100.14,63.3Z" transform="translate(-56.98 -39.3)"/><path class="cls-4" d="M81.69,118.32c7.26-3.13,12.09,1.31,16.11,7.44,2.46,3.77,4.23,8.29,9,13.23a39.27,39.27,0,0,0,42.42,9.46,11,11,0,0,1-2.8,2.55c-21.39,15.27-49.75,14.76-69.87-9.52-3.58-5.74-3.17-8.57-2.75-11.79C74.13,126.73,76.29,120.68,81.69,118.32Z" transform="translate(-56.98 -39.3)"/><path class="cls-5" d="M137.79,136c-3.23-7.21,1.07-12.18,7.13-16.3,3.68-2.53,8.19-4.39,13-9.27a39.85,39.85,0,0,0,8.73-42.83,10.85,10.85,0,0,1,2.58,2.87c15.53,21.2,15.47,49.74-8.34,70.35-5.66,3.67-8.49,3.31-11.69,3C146.27,143.5,140.18,141.44,137.79,136Z" transform="translate(-56.98 -39.3)"/><path class="cls-1" d="M106.36,100.71A12.24,12.24,0,1,0,118.6,88.43,12.27,12.27,0,0,0,106.36,100.71Z" transform="translate(-56.98 -39.3)"/></svg>