<svg id="Layer_1" enable-background="new 0 0 512.002 512.002" height="512" viewBox="0 0 512.002 512.002" width="512" xmlns="http://www.w3.org/2000/svg"><g><g clip-rule="evenodd" fill-rule="evenodd"><path d="m76.002 160.002h359.999v-150.002h-360zm124.999-50c-13.75 0-25-11.25-25-25s11.25-25 25-25h110c13.75 0 25 11.25 25 25s-11.25 25-25 25z" fill="#ddb9a3"/><path d="m76.002 160.002h360v50h-360z" fill="#c68a65"/><path d="m76.001 210.002h360v292h-360z" fill="#ddb9a3"/></g><g><path d="m436.001 0h-360c-5.522 0-10 4.477-10 10v492.002c0 5.523 4.478 10 10 10h360c5.522 0 10-4.477 10-10v-492.002c0-5.523-4.478-10-10-10zm-10 20v130.002h-125.003c-13.268.529-13.258 19.476 0 20h125.003v30h-340v-30h124.997c13.268-.529 13.258-19.476 0-20h-124.997v-130.002zm-340 472.002v-272h340v272z"/><path d="m201.001 120.002h110c46.444-1.928 46.408-68.089 0-70h-110c-46.444 1.928-46.408 68.089 0 70zm0-50h110c19.904.826 19.889 29.181 0 30h-110c-19.904-.826-19.889-29.181 0-30z"/><path d="m237.536 396.125c-3.906-3.905-10.236-3.905-14.143 0-2.311 2.31-3.254 5.47-2.83 8.475h-20.069c-2.378 0-4.121-.931-5.181-2.767-1.065-1.846-1.524-4.995.383-8.299l9.832-17.029c2.762-4.783 1.123-10.899-3.66-13.66-4.785-2.764-10.9-1.122-13.66 3.66l-9.832 17.029c-5.157 8.932-5.304 19.776-.384 28.299 4.616 7.995 13.027 12.767 22.502 12.767h20.069c-.423 3.004.52 6.164 2.83 8.475 3.906 3.905 10.237 3.905 14.143 0l11.403-11.403c3.905-3.905 3.905-10.237 0-14.143z"/><path d="m323.959 367.46c2.813-1.135 5.077-3.533 5.923-6.689 1.43-5.335-1.736-10.818-7.071-12.248l-15.577-4.174c-5.336-1.43-10.817 1.737-12.247 7.071l-4.174 15.577c-1.43 5.335 1.736 10.818 7.071 12.248 3.016.832 6.348.119 8.753-1.786l10.035 17.381c1.189 2.059 1.255 4.034.195 5.869-1.066 1.846-3.564 3.818-7.38 3.818h-19.663c-13.268.528-13.258 19.477 0 20h19.663c20.711.216 35.248-21.342 24.505-39.688z"/><path d="m285.605 321.173c4.783-2.762 6.422-8.877 3.66-13.661l-9.831-17.029c-5.157-8.933-14.475-14.482-24.317-14.482-9.23 0-17.569 4.899-22.306 13.104l-10.034 17.379c-2.388-1.867-5.594-2.63-8.754-1.785-5.334 1.429-8.501 6.913-7.071 12.247l4.173 15.578c.686 2.562 2.362 4.747 4.659 6.073 2.3 1.33 5.039 1.683 7.589.999l15.577-4.174c5.334-1.43 8.5-6.913 7.07-12.248-.846-3.156-3.11-5.553-5.923-6.689l10.034-17.38c2.848-4.884 8.839-3.789 11.982 1.378l9.831 17.029c2.761 4.783 8.875 6.422 13.661 3.661z"/><path d="m256.002 150.002h-.008c-5.522 0-9.996 4.477-9.996 10 .528 13.263 19.479 13.263 20.004 0 0-5.523-4.478-10-10-10z"/></g></g></svg>