<?xml version="1.0" encoding="utf-8"?>
<!-- Generator: Adobe Illustrator 24.3.0, SVG Export Plug-In . SVG Version: 6.00 Build 0)  -->
<svg version="1.1" id="Layer_1" xmlns="http://www.w3.org/2000/svg" xmlns:xlink="http://www.w3.org/1999/xlink" x="0px" y="0px"
	 viewBox="0 0 647.6 206.4" style="enable-background:new 0 0 647.6 206.4;" xml:space="preserve">
<style type="text/css">
	.st0{fill:#FFFFFF;}
	.st1{fill:#DD1327;}
	.st2{fill:#F29900;}
	.st3{fill:#228BA0;}
	.st4{fill:#50B169;}
</style>
<g>
	<g>
		<path class="st0" d="M196.3,101.4v-0.3c0-14.2,11.7-21.8,28.7-21.8c8.6,0,14.6,1.2,20.6,2.9v-2.3c0-12.1-7.4-18.4-20-18.4
			c-6.8,0-12.5,1.6-17.4,3.8c-0.6,0.3-1.3,0.4-1.8,0.4c-2.3,0-4.4-2-4.4-4.3c0-2.1,1.4-3.7,2.7-4.2c6.6-2.9,13.4-4.6,21.9-4.6
			c9.5,0,16.7,2.5,21.6,7.4c4.5,4.6,6.9,11.1,6.9,19.7v36.9c0,2.9-2.1,5-4.8,5c-2.9,0-4.8-2.1-4.8-4.7v-6.1
			c-4.7,6.1-12.4,11.6-24.2,11.6C208.8,122.4,196.3,115.3,196.3,101.4z M245.6,96.2v-6.5c-4.9-1.4-11.5-2.9-19.7-2.9
			c-12.6,0-19.6,5.5-19.6,13.9v0.3c0,8.5,7.8,13.4,16.9,13.4C235.6,114.5,245.6,106.9,245.6,96.2z"/>
		<path class="st0" d="M259.3,87.6v-0.3c0-19,14.8-35.2,34.4-35.2c11.1,0,18.7,4.3,24.6,9.8c0.8,0.6,1.5,2,1.5,3.5
			c0,2.7-2.2,4.8-4.8,4.8c-1.3,0-2.5-0.5-3.2-1.2c-4.8-4.4-10.2-8.1-18.3-8.1c-13.6,0-24,11.6-24,26.1v0.3
			c0,14.6,10.6,26.2,24.6,26.2c7.7,0,13.8-3.5,18.7-8.2c0.6-0.6,1.6-1.3,2.9-1.3c2.5,0,4.5,2.2,4.5,4.6c0,1.2-0.5,2.3-1.3,3.1
			c-6.4,6.4-14,10.8-25.3,10.8C274,122.6,259.3,106.5,259.3,87.6z"/>
		<path class="st0" d="M381.9,116.6c0,2.7-2.1,5.1-4.9,5.1c-2.7,0-4.9-2.2-4.9-5.1v-7.3c-4.5,7.3-11.4,13.2-22.9,13.2
			c-16.2,0-25.7-10.9-25.7-27V58c0-2.9,2.1-5.1,4.9-5.1c2.7,0,5,2.2,5,5.1V93c0,12.5,6.8,20.3,18.5,20.3c11.4,0,20.1-8.5,20.1-21.1
			V58c0-2.9,2.1-5.1,4.9-5.1c2.7,0,4.9,2.2,4.9,5.1L381.9,116.6L381.9,116.6z"/>
		<path class="st0" d="M391.4,58c0-2.7,2.2-5.1,4.9-5.1c2.9,0,5.1,2.2,5.1,5.1v6.9c4.4-6.7,10.4-12.8,21.7-12.8
			c10.9,0,17.9,5.9,21.5,13.4c4.8-7.4,11.9-13.4,23.6-13.4c15.4,0,24.9,10.4,24.9,27.1v37.3c0,2.9-2.2,5.1-4.9,5.1
			c-2.9,0-5-2.2-5-5.1V81.6c0-13-6.5-20.3-17.4-20.3c-10.1,0-18.4,7.6-18.4,20.8v34.4c0,2.9-2.2,5.1-5.1,5.1c-2.7,0-4.9-2.2-4.9-5.1
			V81.4c0-12.6-6.6-20.1-17.2-20.1c-10.6,0-18.7,8.9-18.7,21.2v34c0,2.9-2.1,5.1-4.9,5.1c-2.9,0-5.1-2.2-5.1-5.1L391.4,58L391.4,58z
			"/>
		<path class="st0" d="M496.7,101.4v-0.3c0-14.2,11.7-21.8,28.6-21.8c8.6,0,14.6,1.2,20.6,2.9v-2.3c0-12.1-7.4-18.4-20-18.4
			c-6.8,0-12.4,1.6-17.4,3.8c-0.6,0.3-1.3,0.4-1.8,0.4c-2.3,0-4.4-2-4.4-4.3c0-2.1,1.4-3.7,2.7-4.2c6.6-2.9,13.3-4.6,21.9-4.6
			c9.5,0,16.7,2.5,21.7,7.4c4.5,4.6,6.9,11.1,6.9,19.7v36.9c0,2.9-2.1,5-4.8,5c-2.8,0-4.8-2.1-4.8-4.7v-6.1
			c-4.7,6.1-12.5,11.6-24.2,11.6C509.2,122.4,496.7,115.3,496.7,101.4z M546.1,96.2v-6.5c-4.9-1.4-11.5-2.9-19.7-2.9
			c-12.6,0-19.6,5.5-19.6,13.9v0.3c0,8.5,7.8,13.4,16.8,13.4C535.9,114.5,546.1,106.9,546.1,96.2z"/>
		<path class="st0" d="M563.8,58c0-2.7,2.2-5.1,4.9-5.1c2.8,0,5,2.2,5,5.1v12.6c4.9-11.2,14.7-18,23.1-18c3,0,4.9,2.2,4.9,5.1
			c0,2.8-1.8,4.7-4.4,5.1c-13,1.6-23.6,11.3-23.6,30.8v23c0,2.7-2.1,5.1-4.9,5.1c-2.8,0-5.1-2.2-5.1-5.1L563.8,58L563.8,58z"/>
	</g>
	<g>
		<path class="st0" d="M196.4,147.1l4.3-9.6c0.2-0.5,0.6-0.8,1.2-0.8h0.1c0.6,0,1,0.3,1.2,0.8l4.3,9.6c0.1,0.1,0.1,0.3,0.1,0.4
			c0,0.5-0.4,1-1,1c-0.5,0-0.8-0.3-1-0.7l-0.9-2.2h-5.6l-1,2.2c-0.2,0.4-0.5,0.6-0.9,0.6c-0.5,0-0.9-0.4-0.9-0.9
			C196.2,147.5,196.3,147.3,196.4,147.1z M203.9,143.9l-2-4.7l-2,4.7H203.9z"/>
		<path class="st0" d="M209.3,143.6v-5.8c0-0.6,0.4-1,1-1c0.6,0,1,0.4,1,1v5.7c0,2.2,1.1,3.3,2.9,3.3c1.8,0,2.9-1.1,2.9-3.2v-5.8
			c0-0.6,0.4-1,1-1c0.6,0,1,0.4,1,1v5.6c0,3.5-1.9,5.2-4.9,5.2C211.2,148.6,209.3,146.9,209.3,143.6z"/>
		<path class="st0" d="M224.8,138.8H222c-0.5,0-0.9-0.4-0.9-0.9c0-0.5,0.4-0.9,0.9-0.9h7.7c0.5,0,0.9,0.4,0.9,0.9
			c0,0.5-0.4,0.9-0.9,0.9h-2.8v8.8c0,0.6-0.5,1-1,1c-0.6,0-1-0.4-1-1L224.8,138.8L224.8,138.8z"/>
		<path class="st0" d="M231.5,142.7L231.5,142.7c0-3.3,2.5-6,6.1-6c3.5,0,6,2.7,6,6v0c0,3.3-2.5,6-6.1,6
			C234,148.7,231.5,146,231.5,142.7z M241.4,142.7L241.4,142.7c0-2.3-1.6-4.2-3.9-4.2s-3.9,1.8-3.9,4.1v0c0,2.2,1.6,4.1,3.9,4.1
			C239.8,146.8,241.4,145,241.4,142.7z"/>
		<path class="st0" d="M246,137.9c0-0.6,0.4-1,1-1h4.1c1.4,0,2.6,0.4,3.3,1.1c0.6,0.6,1,1.5,1,2.5v0c0,1.9-1.1,3-2.6,3.5l2.2,2.8
			c0.2,0.2,0.3,0.5,0.3,0.8c0,0.6-0.5,0.9-1,0.9c-0.5,0-0.8-0.2-1-0.5l-2.8-3.6h-2.6v3.1c0,0.6-0.4,1-1,1c-0.6,0-1-0.4-1-1
			L246,137.9L246,137.9z M251,142.6c1.4,0,2.4-0.8,2.4-1.9v0c0-1.2-0.9-1.9-2.4-1.9H248v3.9L251,142.6L251,142.6z"/>
		<path class="st0" d="M258,137.8c0-0.6,0.5-1,1-1c0.6,0,1,0.4,1,1v9.7c0,0.6-0.4,1-1,1c-0.6,0-1-0.4-1-1V137.8z"/>
		<path class="st0" d="M263.2,137.9c0-0.6,0.4-1,1-1h3.3c3.6,0,6.1,2.5,6.1,5.8v0c0,3.3-2.5,5.8-6.1,5.8h-3.3c-0.6,0-1-0.4-1-1
			V137.9z M267.5,146.6c2.4,0,4-1.6,4-3.9v0c0-2.3-1.6-3.9-4-3.9h-2.3v7.9H267.5z"/>
		<path class="st0" d="M274.8,147.1l4.3-9.6c0.2-0.5,0.6-0.8,1.2-0.8h0.1c0.6,0,1,0.3,1.2,0.8l4.3,9.6c0.1,0.1,0.1,0.3,0.1,0.4
			c0,0.5-0.4,1-1,1c-0.5,0-0.8-0.3-1-0.7l-0.9-2.2h-5.6l-1,2.2c-0.2,0.4-0.5,0.6-0.9,0.6c-0.5,0-0.9-0.4-0.9-0.9
			C274.7,147.5,274.7,147.3,274.8,147.1z M282.4,143.9l-2-4.7l-2,4.7H282.4z"/>
		<path class="st0" d="M288.2,137.9c0-0.6,0.4-1,1-1h3.3c3.6,0,6.1,2.5,6.1,5.8v0c0,3.3-2.5,5.8-6.1,5.8h-3.3c-0.6,0-1-0.4-1-1
			V137.9z M292.5,146.6c2.4,0,4-1.6,4-3.9v0c0-2.3-1.6-3.9-4-3.9h-2.3v7.9H292.5z"/>
		<path class="st0" d="M306.1,137.9c0-0.6,0.4-1,1-1h3.3c3.6,0,6.1,2.5,6.1,5.8v0c0,3.3-2.5,5.8-6.1,5.8h-3.3c-0.6,0-1-0.4-1-1
			V137.9z M310.4,146.6c2.4,0,4-1.6,4-3.9v0c0-2.3-1.6-3.9-4-3.9h-2.3v7.9H310.4z"/>
		<path class="st0" d="M319,147.4v-9.5c0-0.6,0.4-1,1-1h6.7c0.5,0,0.9,0.4,0.9,0.9c0,0.5-0.4,0.9-0.9,0.9H321v3h5
			c0.5,0,0.9,0.4,0.9,0.9c0,0.5-0.4,0.9-0.9,0.9h-5v3.1h5.8c0.5,0,0.9,0.4,0.9,0.9c0,0.5-0.4,0.9-0.9,0.9H320
			C319.4,148.5,319,148,319,147.4z"/>
		<path class="st0" d="M334.4,142.7L334.4,142.7c0-3.3,2.5-6,6-6c1.8,0,3,0.5,4,1.3c0.2,0.2,0.4,0.4,0.4,0.8c0,0.6-0.4,1-1,1
			c-0.3,0-0.5-0.1-0.6-0.2c-0.8-0.6-1.7-1.1-2.8-1.1c-2.2,0-3.8,1.8-3.8,4.1v0c0,2.3,1.6,4.1,3.8,4.1c1.2,0,2-0.4,2.9-1.1
			c0.1-0.1,0.4-0.2,0.6-0.2c0.5,0,1,0.4,1,0.9c0,0.3-0.2,0.6-0.3,0.7c-1.1,1-2.3,1.6-4.2,1.6C336.9,148.7,334.4,146,334.4,142.7z"/>
		<path class="st0" d="M346.9,143.6v-5.8c0-0.6,0.4-1,1-1c0.6,0,1,0.4,1,1v5.7c0,2.2,1.1,3.3,2.9,3.3c1.8,0,2.9-1.1,2.9-3.2v-5.8
			c0-0.6,0.4-1,1-1c0.6,0,1,0.4,1,1v5.6c0,3.5-1.9,5.2-5,5.2C348.8,148.6,346.9,146.9,346.9,143.6z"/>
		<path class="st0" d="M359.6,147.4v-9.5c0-0.6,0.4-1,1-1h6.7c0.5,0,0.9,0.4,0.9,0.9c0,0.5-0.4,0.9-0.9,0.9h-5.7v3h5
			c0.5,0,0.9,0.4,0.9,0.9c0,0.5-0.4,0.9-0.9,0.9h-5v3.1h5.8c0.5,0,0.9,0.4,0.9,0.9c0,0.5-0.4,0.9-0.9,0.9h-6.8
			C360,148.5,359.6,148,359.6,147.4z"/>
		<path class="st0" d="M370.6,137.8c0-0.6,0.4-1,1-1h0.2c0.5,0,0.8,0.2,1,0.6l5.8,7.5v-7.1c0-0.5,0.5-1,1-1c0.6,0,1,0.4,1,1v9.8
			c0,0.6-0.4,1-1,1h-0.1c-0.5,0-0.8-0.3-1-0.6l-5.9-7.7v7.4c0,0.6-0.4,1-1,1c-0.6,0-1-0.4-1-1L370.6,137.8L370.6,137.8z"/>
		<path class="st0" d="M383.1,142.7L383.1,142.7c0-3.3,2.5-6,6-6c1.8,0,3,0.5,4,1.3c0.2,0.2,0.4,0.4,0.4,0.8c0,0.6-0.4,1-1,1
			c-0.3,0-0.5-0.1-0.6-0.2c-0.8-0.6-1.6-1.1-2.8-1.1c-2.2,0-3.8,1.8-3.8,4.1v0c0,2.3,1.6,4.1,3.8,4.1c1.2,0,2-0.4,2.9-1.1
			c0.1-0.1,0.4-0.2,0.6-0.2c0.5,0,1,0.4,1,0.9c0,0.3-0.1,0.6-0.3,0.7c-1.1,1-2.3,1.6-4.2,1.6C385.7,148.7,383.1,146,383.1,142.7z"/>
		<path class="st0" d="M395.2,147.1l4.3-9.6c0.2-0.5,0.6-0.8,1.2-0.8h0.1c0.6,0,1,0.3,1.2,0.8l4.3,9.6c0.1,0.1,0.1,0.3,0.1,0.4
			c0,0.5-0.4,1-1,1c-0.5,0-0.8-0.3-1-0.7l-0.9-2.2h-5.6l-1,2.2c-0.2,0.4-0.5,0.6-0.9,0.6c-0.5,0-0.9-0.4-0.9-0.9
			C395,147.5,395.1,147.3,395.2,147.1z M402.7,143.9l-2-4.7l-2,4.7H402.7z"/>
		<path class="st0" d="M413.5,137.8c0-0.6,0.5-1,1-1h0.2c0.4,0,0.8,0.2,1,0.5l3.5,5.5l3.5-5.5c0.2-0.3,0.5-0.5,0.9-0.5h0.2
			c0.6,0,1,0.5,1,1v9.7c0,0.6-0.4,1-1,1c-0.5,0-1-0.5-1-1v-7l-2.8,4.3c-0.2,0.3-0.5,0.5-0.9,0.5c-0.4,0-0.6-0.2-0.8-0.5l-2.8-4.2
			v6.9c0,0.6-0.4,1-1,1s-1-0.4-1-1L413.5,137.8L413.5,137.8z"/>
		<path class="st0" d="M427.2,147.1l4.3-9.6c0.2-0.5,0.6-0.8,1.2-0.8h0.1c0.6,0,1,0.3,1.2,0.8l4.3,9.6c0.1,0.1,0.1,0.3,0.1,0.4
			c0,0.5-0.4,1-1,1c-0.5,0-0.8-0.3-1-0.7l-0.9-2.2h-5.6l-1,2.2c-0.2,0.4-0.5,0.6-0.9,0.6c-0.5,0-0.9-0.4-0.9-0.9
			C427,147.5,427.1,147.3,427.2,147.1z M434.7,143.9l-2-4.7l-2,4.7H434.7z"/>
		<path class="st0" d="M442.1,138.8h-2.8c-0.5,0-0.9-0.4-0.9-0.9c0-0.5,0.4-0.9,0.9-0.9h7.7c0.5,0,0.9,0.4,0.9,0.9
			c0,0.5-0.4,0.9-0.9,0.9h-2.8v8.8c0,0.6-0.5,1-1,1c-0.6,0-1-0.4-1-1L442.1,138.8L442.1,138.8z"/>
		<path class="st0" d="M448,147.1l4.3-9.6c0.2-0.5,0.6-0.8,1.2-0.8h0.1c0.6,0,1,0.3,1.2,0.8l4.3,9.6c0.1,0.1,0.1,0.3,0.1,0.4
			c0,0.5-0.4,1-1,1c-0.5,0-0.8-0.3-1-0.7l-0.9-2.2h-5.6l-1,2.2c-0.2,0.4-0.5,0.6-0.9,0.6c-0.5,0-0.9-0.4-0.9-0.9
			C447.8,147.5,447.9,147.3,448,147.1z M455.5,143.9l-2-4.7l-2,4.7H455.5z"/>
		<path class="st0" d="M461.4,137.8c0-0.6,0.5-1,1-1h0.2c0.5,0,0.8,0.2,1,0.6l5.8,7.5v-7.1c0-0.5,0.4-1,1-1c0.6,0,1,0.4,1,1v9.8
			c0,0.6-0.4,1-1,1h-0.1c-0.5,0-0.8-0.3-1-0.6l-5.9-7.7v7.4c0,0.6-0.4,1-1,1s-1-0.4-1-1L461.4,137.8L461.4,137.8z"/>
		<path class="st0" d="M473.9,147.6L473.9,147.6c0-0.4,0.1-0.7,0.4-1l6.5-7.9H475c-0.5,0-0.9-0.4-0.9-0.9s0.4-0.9,0.9-0.9h7.6
			c0.5,0,0.9,0.4,0.9,0.9v0c0,0.4-0.1,0.7-0.4,0.9l-6.5,7.9h6c0.5,0,0.9,0.4,0.9,0.9c0,0.5-0.4,0.9-0.9,0.9h-7.8
			C474.4,148.5,473.9,148.1,473.9,147.6z"/>
		<path class="st0" d="M485.2,147.1l4.3-9.6c0.2-0.5,0.6-0.8,1.2-0.8h0.1c0.6,0,1,0.3,1.2,0.8l4.3,9.6c0.1,0.1,0.1,0.3,0.1,0.4
			c0,0.5-0.4,1-1,1c-0.5,0-0.8-0.3-1-0.7l-0.9-2.2H488l-1,2.2c-0.2,0.4-0.5,0.6-0.9,0.6c-0.5,0-0.9-0.4-0.9-0.9
			C485.1,147.5,485.2,147.3,485.2,147.1z M492.8,143.9l-2-4.7l-2,4.7H492.8z"/>
		<path class="st0" d="M503.6,137.9c0-0.6,0.4-1,1-1h4.1c1.5,0,2.6,0.4,3.3,1.1c0.6,0.6,1,1.5,1,2.5v0c0,1.9-1.1,3-2.6,3.5l2.2,2.8
			c0.2,0.2,0.3,0.5,0.3,0.8c0,0.6-0.5,0.9-1,0.9c-0.5,0-0.8-0.2-1-0.5l-2.8-3.6h-2.5v3.1c0,0.6-0.5,1-1,1c-0.6,0-1-0.4-1-1
			L503.6,137.9L503.6,137.9z M508.6,142.6c1.5,0,2.4-0.8,2.4-1.9v0c0-1.2-0.9-1.9-2.4-1.9h-3v3.9L508.6,142.6L508.6,142.6z"/>
		<path class="st0" d="M515.6,137.8c0-0.6,0.4-1,1-1c0.6,0,1,0.4,1,1v9.7c0,0.6-0.5,1-1,1c-0.6,0-1-0.4-1-1V137.8z"/>
		<path class="st0" d="M520.1,147.1l4.3-9.6c0.2-0.5,0.6-0.8,1.2-0.8h0.1c0.6,0,1,0.3,1.2,0.8l4.3,9.6c0.1,0.1,0.1,0.3,0.1,0.4
			c0,0.5-0.4,1-1,1c-0.5,0-0.8-0.3-1-0.7l-0.9-2.2h-5.6l-1,2.2c-0.2,0.4-0.5,0.6-0.9,0.6c-0.5,0-0.9-0.4-0.9-0.9
			C519.9,147.5,520,147.3,520.1,147.1z M527.6,143.9l-2-4.7l-2,4.7H527.6z"/>
		<path class="st0" d="M532.5,142.7L532.5,142.7c0-3.3,2.5-6,6-6c1.8,0,3,0.5,4,1.3c0.2,0.2,0.4,0.4,0.4,0.8c0,0.6-0.5,1-1,1
			c-0.3,0-0.5-0.1-0.6-0.2c-0.8-0.6-1.7-1.1-2.8-1.1c-2.2,0-3.8,1.8-3.8,4.1v0c0,2.3,1.6,4.1,3.8,4.1c1.2,0,2-0.4,2.9-1.1
			c0.1-0.1,0.4-0.2,0.6-0.2c0.5,0,1,0.4,1,0.9c0,0.3-0.1,0.6-0.3,0.7c-1.1,1-2.3,1.6-4.2,1.6C535,148.7,532.5,146,532.5,142.7z"/>
		<path class="st0" d="M545.2,137.8c0-0.6,0.4-1,1-1c0.6,0,1,0.4,1,1v3.9h5.5v-3.9c0-0.6,0.5-1,1-1c0.6,0,1,0.4,1,1v9.7
			c0,0.6-0.5,1-1,1c-0.6,0-1-0.4-1-1v-4h-5.5v4c0,0.6-0.4,1-1,1c-0.6,0-1-0.4-1-1V137.8z"/>
		<path class="st0" d="M557.5,143.6v-5.8c0-0.6,0.4-1,1-1c0.6,0,1,0.4,1,1v5.7c0,2.2,1.1,3.3,2.9,3.3c1.8,0,2.9-1.1,2.9-3.2v-5.8
			c0-0.6,0.4-1,1-1c0.6,0,1,0.4,1,1v5.6c0,3.5-2,5.2-5,5.2C559.4,148.6,557.5,146.9,557.5,143.6z"/>
		<path class="st0" d="M570.2,147.4v-9.5c0-0.6,0.5-1,1-1h6.7c0.5,0,0.9,0.4,0.9,0.9c0,0.5-0.4,0.9-0.9,0.9h-5.7v3h5
			c0.5,0,0.9,0.4,0.9,0.9c0,0.5-0.4,0.9-0.9,0.9h-5v3.1h5.8c0.5,0,0.9,0.4,0.9,0.9c0,0.5-0.4,0.9-0.9,0.9h-6.8
			C570.6,148.5,570.2,148,570.2,147.4z"/>
		<path class="st0" d="M581.2,137.8c0-0.6,0.5-1,1-1c0.6,0,1,0.4,1,1v8.8h5.2c0.5,0,0.9,0.4,0.9,0.9c0,0.5-0.4,0.9-0.9,0.9h-6.2
			c-0.6,0-1-0.4-1-1V137.8z"/>
		<path class="st0" d="M590.2,142.7L590.2,142.7c0-3.3,2.5-6,6-6c3.5,0,6,2.7,6,6v0c0,3.3-2.5,6-6,6
			C592.7,148.7,590.2,146,590.2,142.7z M600.2,142.7L600.2,142.7c0-2.3-1.6-4.2-3.9-4.2s-3.9,1.8-3.9,4.1v0c0,2.2,1.6,4.1,3.9,4.1
			C598.6,146.8,600.2,145,600.2,142.7z"/>
	</g>
	<path class="st1" d="M155.6,82.4c-7.3,3.1-12.1-1.3-16.1-7.5c-2.4-3.8-4.2-8.3-9-13.3C120.8,51.5,105,45.9,88.2,52
		c0,0,0.5-0.9,2.8-2.6c21.4-15.1,49.8-14.5,69.8,9.8c3.5,5.8,3.1,8.6,2.7,11.8C163.2,74.1,161,80.1,155.6,82.4z"/>
	<path class="st2" d="M100.1,63.3c3.1,7.3-1.4,12.1-7.6,16.1c-3.8,2.5-8.3,4.2-13.3,8.9c-10.1,9.7-15.9,25.5-9.9,42.5
		c-0.1-0.1-0.9-0.5-2.5-2.9c-14.9-21.6-14.1-50.2,10.3-70.1c5.8-3.5,8.6-3.1,11.8-2.6C91.9,55.6,97.9,57.8,100.1,63.3z"/>
	<path class="st3" d="M81.7,118.3c7.3-3.1,12.1,1.3,16.1,7.4c2.5,3.8,4.2,8.3,9,13.2c9.8,10.1,25.6,15.7,42.4,9.5
		c0-0.1-0.5,0.9-2.8,2.6c-21.4,15.3-49.8,14.8-69.9-9.5c-3.6-5.7-3.2-8.6-2.8-11.8C74.1,126.7,76.3,120.7,81.7,118.3z"/>
	<path class="st4" d="M137.8,136c-3.2-7.2,1.1-12.2,7.1-16.3c3.7-2.5,8.2-4.4,13-9.3c9.9-10,15.2-26,8.7-42.8
		c0.1,0.1,0.9,0.5,2.6,2.9c15.5,21.2,15.5,49.7-8.3,70.4c-5.7,3.7-8.5,3.3-11.7,2.9C146.3,143.5,140.2,141.4,137.8,136z"/>
	<path class="st0" d="M106.4,100.7c0,6.8,5.5,12.3,12.2,12.3c6.8,0,12.2-5.5,12.2-12.3s-5.5-12.3-12.2-12.3
		C111.9,88.4,106.4,93.9,106.4,100.7z"/>
</g>
</svg>
