<?xml version="1.0" encoding="utf-8"?>
<!-- Generator: Adobe Illustrator 24.3.0, SVG Export Plug-In . SVG Version: 6.00 Build 0)  -->
<svg version="1.1" id="Capa_1" xmlns="http://www.w3.org/2000/svg" xmlns:xlink="http://www.w3.org/1999/xlink" x="0px" y="0px"
	 viewBox="0 0 122.9 102.3" style="enable-background:new 0 0 122.9 102.3;" xml:space="preserve">
<style type="text/css">
	.st0{fill:#FFFFFF;stroke:#34719D;stroke-width:1.5;stroke-linecap:round;stroke-linejoin:round;stroke-miterlimit:10;}
	.st1{fill:#34719D;stroke:#34719D;stroke-width:1.5;stroke-linecap:round;stroke-linejoin:round;stroke-miterlimit:10;}
	.st2{fill:none;stroke:#34719D;stroke-width:1.5;stroke-linecap:round;stroke-linejoin:round;stroke-miterlimit:10;}
</style>
<path class="st0" d="M113.1,99.8H9.8c-3.6,0-6.4-2.9-6.4-6.4V17.9c0-3.6,2.9-6.4,6.4-6.4h103.4c3.6,0,6.4,2.9,6.4,6.4v75.5
	C119.6,97,116.7,99.8,113.1,99.8z"/>
<path class="st1" d="M113.4,95.5c-7,0.1-14.4,0.3-22.2,0.9c-10.7,0.8-20.7,2-29.8,3.5c0-29.4,0-58.9,0-88.3
	c11.3-1.9,23.8-3.4,37.4-4c5-0.2,9.9-0.3,14.6-0.3C113.4,36.6,113.4,66,113.4,95.5z"/>
<line class="st2" x1="61.5" y1="11.5" x2="61.5" y2="99.8"/>
<path class="st0" d="M103.9,90.1c-5.9,0.6-12.5,1.6-19.6,3.2c-8.7,1.9-16.3,4.2-22.9,6.5c0-29.4,0-58.9,0-88.3
	c5.7-1.9,11.9-3.7,18.7-5.3c8.4-2,16.3-3.4,23.5-4.4C103.8,31.2,103.9,60.7,103.9,90.1z"/>
<path class="st2" d="M65.7,55.4c4.2-2,8.8-3.9,13.8-5.6c6.2-2.1,12.1-3.6,17.4-4.5"/>
<path class="st2" d="M97,35.2c-4.4,0.7-9.2,1.7-14.5,3.3c-6.4,2-12.1,4.4-16.9,6.8"/>
<path class="st2" d="M97,25.1c-4.4,0.7-9.2,1.7-14.5,3.3c-6.4,2-12.1,4.4-16.9,6.8"/>
<path class="st2" d="M97,15c-4.4,0.7-9.2,1.7-14.5,3.3c-6.4,2-12.1,4.4-16.9,6.8"/>
<path class="st2" d="M65.8,65.5c4.2-2,8.8-3.9,13.8-5.6c6.2-2.1,12.1-3.6,17.4-4.5"/>
<path class="st2" d="M65.8,75.6c4.2-2,8.8-3.9,13.8-5.6c6.2-2.1,12.1-3.6,17.4-4.5"/>
<path class="st2" d="M65.8,85.7c4.2-2,8.8-3.9,13.8-5.6c6.2-2.1,12.1-3.6,17.4-4.5"/>
<path class="st0" d="M9.5,95.5c7,0.1,14.4,0.3,22.2,0.9c10.7,0.8,20.7,2,29.8,3.5c0-29.4,0-58.9,0-88.3c-11.3-1.9-23.8-3.4-37.4-4
	c-5-0.2-9.9-0.3-14.6-0.3C9.5,36.6,9.5,66,9.5,95.5z"/>
<path class="st2" d="M55.7,76.4c-8.7-2-18.4-3.5-28.9-4.2c-3.9-0.2-7.6-0.4-11.3-0.4"/>
<path class="st2" d="M15.5,82.1c5.4,0.1,11.1,0.4,17.1,0.9c8.3,0.8,16,2.1,23,3.6"/>
<path class="st2" d="M55.7,55.9c-8.7-2-18.4-3.5-28.9-4.2c-3.9-0.2-7.6-0.4-11.3-0.4"/>
<path class="st2" d="M15.5,61.6c5.4,0.1,11.1,0.4,17.1,0.9c8.3,0.8,16,2.1,23,3.6"/>
<path class="st2" d="M55.7,35.5c-8.7-2-18.4-3.5-28.9-4.2c-3.9-0.2-7.6-0.4-11.3-0.4"/>
<path class="st2" d="M15.5,41.2c5.4,0.1,11.1,0.4,17.1,0.9c8.3,0.8,16,2.1,23,3.6"/>
<path class="st2" d="M15.2,20.7c5.4,0.1,11.1,0.4,17.1,0.9c8.3,0.8,16,2.1,23,3.6"/>
</svg>
