<?xml version="1.0" encoding="utf-8"?>
<!-- Generator: Adobe Illustrator 24.3.0, SVG Export Plug-In . SVG Version: 6.00 Build 0)  -->
<svg version="1.1" id="Capa_1" xmlns="http://www.w3.org/2000/svg" xmlns:xlink="http://www.w3.org/1999/xlink" x="0px" y="0px"
	 viewBox="0 0 122.9 102.3" style="enable-background:new 0 0 122.9 102.3;" xml:space="preserve">
<style type="text/css">
	.st0{fill:#39709D;stroke:#39709D;stroke-linecap:round;stroke-linejoin:round;stroke-miterlimit:10;}
	.st1{fill:#FFFFFF;stroke:#39709D;stroke-width:0.75;stroke-linecap:round;stroke-linejoin:round;stroke-miterlimit:10;}
	.st2{fill:#39709D;}
	.st3{fill:none;stroke:#A5A5A5;stroke-width:0.25;stroke-linecap:round;stroke-linejoin:round;stroke-miterlimit:10;}
	.st4{fill:none;stroke:#39709D;stroke-width:0.75;stroke-linecap:round;stroke-linejoin:round;stroke-miterlimit:10;}
</style>
<path class="st0" d="M114.8,11h-4.4v4.7c0,1.8-0.7,3.5-1.9,4.7c-1.2,1.2-2.8,1.9-4.6,1.9c-3.6,0-6.6-2.9-6.6-6.6V11h-7.7v4.7
	c0,1.8-0.7,3.5-1.9,4.7c-1.2,1.2-2.8,1.9-4.6,1.9c-3.6,0-6.6-2.9-6.6-6.6V11h-7.7v4.7c0,1.8-0.7,3.5-1.9,4.7
	c-1.2,1.2-2.8,1.9-4.6,1.9c-3.6,0-6.6-2.9-6.6-6.6V11h-7.7v4.7c0,1.8-0.7,3.5-1.9,4.7c-1.2,1.2-2.8,1.9-4.7,1.9
	c-3.6,0-6.6-2.9-6.6-6.6V11h-7.7v4.7c0,1.8-0.7,3.5-1.9,4.7c-1.2,1.2-2.8,1.9-4.7,1.9c-3.6,0-6.6-2.9-6.6-6.6V11H9.3
	c-3,0-5.4,2.4-5.4,5.4v78.5c0,3,2.4,5.4,5.4,5.4h105.5c3,0,5.4-2.4,5.4-5.4V16.3C120.1,13.4,117.7,11,114.8,11z M112.1,86.1
	c0,4.1-3.3,7.4-7.4,7.4H19.3c-4.1,0-7.4-3.3-7.4-7.4V35.4c0-4.1,3.3-7.4,7.4-7.4h85.4c4.1,0,7.4,3.3,7.4,7.4V86.1z"/>
<path class="st1" d="M112.1,35.4v50.8c0,4.1-3.3,7.4-7.4,7.4H19.3c-4.1,0-7.4-3.3-7.4-7.4V35.4c0-4.1,3.3-7.4,7.4-7.4h85.4
	C108.8,28,112.1,31.3,112.1,35.4z"/>
<path class="st2" d="M20.3,2.1L20.3,2.1c-2.3,0-4.2,1.9-4.2,4.2v9.2c0,2.3,1.9,4.2,4.2,4.2h0c2.3,0,4.2-1.9,4.2-4.2V6.4
	C24.5,4,22.6,2.1,20.3,2.1z"/>
<path class="st2" d="M41.2,2.1L41.2,2.1c-2.3,0-4.2,1.9-4.2,4.2v9.2c0,2.3,1.9,4.2,4.2,4.2h0c2.3,0,4.2-1.9,4.2-4.2V6.4
	C45.4,4,43.5,2.1,41.2,2.1z"/>
<path class="st2" d="M62,2.1L62,2.1c-2.3,0-4.2,1.9-4.2,4.2v9.2c0,2.3,1.9,4.2,4.2,4.2h0c2.3,0,4.2-1.9,4.2-4.2V6.4
	C66.2,4,64.4,2.1,62,2.1z"/>
<path class="st2" d="M82.9,2.1L82.9,2.1c-2.3,0-4.2,1.9-4.2,4.2v9.2c0,2.3,1.9,4.2,4.2,4.2h0c2.3,0,4.2-1.9,4.2-4.2V6.4
	C87.1,4,85.2,2.1,82.9,2.1z"/>
<path class="st2" d="M103.8,2.1L103.8,2.1c-2.3,0-4.2,1.9-4.2,4.2v9.2c0,2.3,1.9,4.2,4.2,4.2h0c2.3,0,4.2-1.9,4.2-4.2V6.4
	C108,4,106.1,2.1,103.8,2.1z"/>
<line class="st3" x1="26.3" y1="93.5" x2="26.3" y2="28"/>
<line class="st3" x1="40.6" y1="93.5" x2="40.6" y2="28"/>
<line class="st3" x1="54.9" y1="93.5" x2="54.9" y2="28"/>
<line class="st3" x1="69.2" y1="93.5" x2="69.2" y2="28"/>
<line class="st3" x1="83.5" y1="93.5" x2="83.5" y2="28"/>
<line class="st3" x1="97.8" y1="93.5" x2="97.8" y2="28"/>
<line class="st3" x1="12.2" y1="64.7" x2="111.6" y2="64.7"/>
<line class="st3" x1="12.2" y1="79.1" x2="111.8" y2="79.1"/>
<line class="st3" x1="12.2" y1="35.9" x2="112.4" y2="35.9"/>
<line class="st3" x1="11.7" y1="50.3" x2="111.8" y2="50.3"/>
<path class="st4" d="M112.1,35.4v50.8c0,4.1-3.3,7.4-7.4,7.4H19.3c-4.1,0-7.4-3.3-7.4-7.4V35.4c0-4.1,3.3-7.4,7.4-7.4h85.4
	C108.8,28,112.1,31.3,112.1,35.4z"/>
</svg>
