<?xml version="1.0" encoding="utf-8"?>
<!-- Generator: Adobe Illustrator 24.3.0, SVG Export Plug-In . SVG Version: 6.00 Build 0)  -->
<svg version="1.1" id="Layer_1" xmlns="http://www.w3.org/2000/svg" xmlns:xlink="http://www.w3.org/1999/xlink" x="0px" y="0px"
	 viewBox="0 0 178.8 133.3" style="enable-background:new 0 0 178.8 133.3;" xml:space="preserve">
<style type="text/css">
	.st0{fill:#F5B444;}
	.st1{fill:#FFFFFF;}
	.st2{fill:#F5B444;stroke:#F5B444;stroke-width:2;stroke-miterlimit:10;}
	.st3{fill:#FFFFFF;stroke:#F5B444;stroke-width:2;stroke-linecap:round;stroke-linejoin:round;stroke-miterlimit:10;}
	.st4{fill:none;stroke:#F5B444;stroke-width:2;stroke-linecap:round;stroke-miterlimit:10;}
</style>
<path class="st0" d="M176.7,103.7c0,0.1,0.1,1.4-0.9,2.2c-0.8,0.7-1.8,0.7-2,0.7h-11c-2.8-6-8.8-10.2-15.9-10.2
	c-7.1,0-13.1,4.2-15.9,10.2h-10.7c-0.3,0-1.3,0-2.2-0.8c-1.3-1.1-1.1-2.8-1-3c0-22.1,0-44.2,0-66.3c0-0.2,0.2-0.9,0.7-1.4
	c0.7-0.7,1.6-0.7,1.8-0.7c8.7,0,17.3,0,26,0c0.5,0,1.2,0.1,2,0.5c0.8,0.4,1.4,0.9,1.7,1.2c8.6,8.9,17.2,17.9,25.8,26.8
	c0.3,0.4,0.8,1,1.1,1.8c0.4,1,0.5,2,0.4,2.5V103.7z"/>
<path class="st1" d="M173.2,67.2c0,0-0.1,0.1-0.2,0.1c-14.6,0-29.1,0-43.7,0c-0.1,0-0.5,0-0.9-0.4c-0.4-0.4-0.4-0.9-0.4-0.9
	c0-8.2,0-16.3,0-24.5c0-0.2,0-0.6,0.3-0.9c0.5-0.7,1.5-0.7,1.5-0.7c5.1,0,10.3,0,15.4,0c0.5,0,1.4,0.1,2.3,0.5
	c0.8,0.4,1.4,0.9,1.7,1.2c7.9,8.3,15.9,16.5,23.8,24.8C173.2,66.7,173.3,67,173.2,67.2z"/>
<path class="st2" d="M126.5,15.9L126.5,15.9c0,7.2-5.8,13-13,13H97.9c1.7,0,3.2-1.5,4.3-3.8c1.1-2.4,1.8-5.6,1.8-9.2
	c0-7-2.6-12.8-5.9-12.9h15.5C120.7,3,126.5,8.8,126.5,15.9z"/>
<path class="st3" d="M103.9,15.9c0,3.6-0.7,6.8-1.9,9.2c-1.2,2.3-2.8,3.8-4.5,3.8H5.2c-0.6,0-1.1,0-1.7-0.1
	c3.2-0.8,5.6-6.2,5.6-12.9v0c0-6.6-2.5-12.1-5.6-12.8C4.1,3,4.7,3,5.2,3h92.4C101.2,3.1,103.9,8.9,103.9,15.9z"/>
<line class="st4" x1="8.4" y1="8.6" x2="92.2" y2="8.6"/>
<line class="st4" x1="9.5" y1="15.8" x2="77.8" y2="15.8"/>
<line class="st4" x1="8.3" y1="23.4" x2="88.6" y2="23.4"/>
<path class="st2" d="M126.5,41.8L126.5,41.8c0,7.2-5.8,13-13,13H97.9c1.7,0,3.2-1.5,4.3-3.8c1.1-2.3,1.8-5.6,1.8-9.2
	c0-7.2-2.7-13-6-13h15.7C120.7,28.9,126.5,34.7,126.5,41.8z"/>
<path class="st3" d="M103.9,41.8c0,3.6-0.7,6.8-1.9,9.2c-1.2,2.4-2.8,3.8-4.5,3.8H5.2c-0.6,0-1.1,0-1.7-0.1
	c3.2-0.8,5.6-6.2,5.6-12.8v0c0-6.6-2.5-12.1-5.6-12.9c0.6-0.1,1.1-0.1,1.7-0.1h92.3C101.1,28.9,103.9,34.7,103.9,41.8z"/>
<line class="st4" x1="8.4" y1="34.5" x2="83.2" y2="34.5"/>
<line class="st4" x1="9.5" y1="41.7" x2="94.4" y2="41.7"/>
<line class="st4" x1="8.3" y1="49.3" x2="74.5" y2="49.3"/>
<path class="st2" d="M126.5,67.7L126.5,67.7c0,7.2-5.8,13-13,13H97.9c3.3,0,6-5.8,6-13v0c0-7.1-2.7-12.9-6-12.9h15.7
	C120.7,54.8,126.5,60.6,126.5,67.7z"/>
<path class="st3" d="M103.9,67.7L103.9,67.7c0,7.2-2.9,13-6.4,13H5.2c-0.6,0-1.1,0-1.7-0.1c3.2-0.8,5.6-6.2,5.6-12.9v0
	c0-6.6-2.5-12.1-5.6-12.8c0.6-0.1,1.1-0.1,1.7-0.1h92.3C101.1,54.8,103.9,60.6,103.9,67.7z"/>
<line class="st4" x1="8.4" y1="60.4" x2="82.1" y2="60.4"/>
<line class="st4" x1="9.5" y1="67.7" x2="72" y2="67.7"/>
<line class="st4" x1="8.3" y1="75.3" x2="92.2" y2="75.3"/>
<path class="st2" d="M126.5,93.6L126.5,93.6c0,7.2-5.8,13-13,13H97.9c1.7,0,3.2-1.5,4.3-3.8c1.1-2.4,1.8-5.6,1.8-9.2
	c0-7-2.6-12.8-5.9-13h15.5C120.7,80.7,126.5,86.5,126.5,93.6z"/>
<path class="st3" d="M103.9,93.6c0,3.6-0.7,6.8-1.9,9.2c-1.2,2.3-2.8,3.8-4.5,3.8H48.1c-0.1-0.3-0.3-0.7-0.4-1
	c-2.9-6-9.3-10.2-16.7-10.2c-7.4,0-13.8,4.2-16.7,10.2c-0.2,0.3-0.3,0.7-0.4,1H5.2c-0.6,0-1.1,0-1.7-0.1c3.2-0.8,5.6-6.2,5.6-12.9v0
	c0-6.6-2.5-12.1-5.6-12.9c0.6-0.1,1.1-0.1,1.7-0.1h92.4C101.1,80.9,103.9,86.6,103.9,93.6z"/>
<line class="st4" x1="8.4" y1="86.3" x2="92.2" y2="86.3"/>
<line class="st4" x1="9.5" y1="93.6" x2="77.8" y2="93.6"/>
<line class="st4" x1="51.9" y1="101.2" x2="88.6" y2="101.2"/>
<path class="st0" d="M162.7,115.2c0,9.1-7.1,16.4-15.9,16.4c-8.8,0-15.9-7.3-15.9-16.4c0-2.4,0.5-4.7,1.4-6.8
	c2.5-5.6,8-9.6,14.4-9.6c6.4,0,11.9,3.9,14.4,9.6C162.2,110.5,162.7,112.8,162.7,115.2z"/>
<path class="st0" d="M46.9,115.2c0,9.1-7.1,16.4-15.9,16.4c-8.8,0-15.9-7.3-15.9-16.4c0-2.4,0.5-4.7,1.4-6.8c2.5-5.6,8-9.6,14.4-9.6
	c6.4,0,11.9,3.9,14.4,9.6C46.4,110.5,46.9,112.8,46.9,115.2z"/>
</svg>
