<?xml version="1.0" encoding="utf-8"?>
<!-- Generator: Adobe Illustrator 21.0.0, SVG Export Plug-In . SVG Version: 6.00 Build 0)  -->
<svg version="1.1" id="Capa_1" xmlns="http://www.w3.org/2000/svg" xmlns:xlink="http://www.w3.org/1999/xlink" x="0px" y="0px"
	 viewBox="0 0 428.7 275.5" style="enable-background:new 0 0 428.7 275.5;" xml:space="preserve">
<style type="text/css">
	.st0{fill:#2BB493;}
</style>
<g>
	<path class="st0" d="M213.7,275.3c-62.1,0-124.2-0.1-186.2,0.1c-11.2,0-18.7-5.1-24.6-13.9c-2-3-2.9-6.3-2.9-10
		c0-57.8,0-115.5,0-173.3c0-7.2,2.2-8.6,8.8-5.2c23.3,12,46.5,24.2,69.7,36.3c38,19.8,75.8,39.8,113.9,59.3
		c14.4,7.4,29.4,7.2,43.8-0.2c59.3-30.7,118.5-61.7,177.7-92.6c2.7-1.4,5.4-2.9,8.2-3.9c3.9-1.5,5.8-0.2,6.1,3.9
		c0.1,1.6,0.1,3.2,0.1,4.8c0,56.2-0.4,112.3,0.3,168.5c0.2,12.8-14.5,26.5-26.3,26.4C339.5,275,276.6,275.3,213.7,275.3z"/>
	<path class="st0" d="M214,0c65.9,0,131.8,0,197.7,0c2.7,0,5.5,0,8.1,0.3c6.7,0.9,9.3,5.4,6.8,11.7c-2.7,6.7-7.7,11.1-14,14.5
		c-48.9,26.1-97.7,52.4-146.6,78.6c-9.3,5-18.5,10-27.9,14.9c-16,8.4-32.2,8.4-48.2-0.1C133,89.5,76,58.9,18.9,28.4
		c-6-3.2-11.7-6.6-15.4-12.6c-5.8-9.2-2.7-15.2,8-15.6C18.1-0.1,24.7,0,31.2,0C92.2,0,153.1,0,214,0z"/>
</g>
</svg>
