<?xml version="1.0" encoding="utf-8"?>
<!-- Generator: Adobe Illustrator 21.0.0, SVG Export Plug-In . SVG Version: 6.00 Build 0)  -->
<svg version="1.1" xmlns="http://www.w3.org/2000/svg" xmlns:xlink="http://www.w3.org/1999/xlink" x="0px" y="0px"
	 viewBox="0 0 746 156" style="enable-background:new 0 0 746 156;" xml:space="preserve">
<style type="text/css">
	.st0{display:none;}
	.st1{display:inline;}
	.st2{fill:#12B8FE;}
	.st3{fill:#FEFEFE;}
	.st4{fill:#FDFEFE;}
	.st5{fill:#FCFDFE;}
	.st6{font-family:'Lato-Black';}
	.st7{font-size:62.9943px;}
	.st8{fill:#29B7B0;}
</style>
<g id="Capa_1" class="st0">
	<g class="st1">
		<path class="st2" d="M152,78.8c0.1,40.9-33,74.2-73.9,74.2C37.2,153,4,119.9,4,79C4,38.3,37.1,5.1,77.7,5
			C118.6,4.9,151.9,38,152,78.8z"/>
		<path class="st3" d="M77.9,13c36.2,0,65.3,29.3,65.2,65.6c0,38.7-32.6,66.3-66.9,65.6C41,143.4,12,114.3,12,78.4
			C12,41.9,41.1,13,77.9,13z"/>
		<path class="st2" d="M127.2,78.9c-0.3,28.3-22.7,49.5-51.9,49.2c-26.2-0.3-47.8-23.4-47.5-50.6c0.3-28.1,24.6-49.8,51.9-48.8
			C105.7,29.7,127.5,52.2,127.2,78.9z"/>
		<path class="st4" d="M58.9,49.3c13.7-10.9,30.4-9.8,41.2,1.8c1.4,1.5,2.6,3,3.3,5c1.4,4.2-0.5,9.5-4.2,11.2
			c-4.5,2-7.2-0.5-9.5-3.9c-1.6-2.3-2.8-5-4.7-7.1C78.3,48.6,69.9,46.4,58.9,49.3z"/>
		<path class="st4" d="M48,95.5c-11.1-12.7-8.9-33.3,4.2-42.5c3.8-2.7,7.8-3,11.6-0.2c4.1,3,4.3,7.7,0.5,11c-1.4,1.2-3,2.1-4.6,3
			C48.9,73.4,45,82.4,48,95.5z"/>
		<path class="st4" d="M93.3,107.4c-12.8,10.5-32.9,7.4-41.2-5.5c-2.3-3.6-2.2-7.2,0-10.8c2.5-4,7.3-4.6,10.6-1.3
			c1.6,1.6,2.8,3.7,4,5.6c5.6,8.8,13.3,13.2,23.9,11.7C91.2,107.1,91.8,107.3,93.3,107.4z"/>
		<path class="st4" d="M106,59.3c11.3,12.6,9.3,32.7-3.8,42.4c-4,3-10.3,2.3-13-1.4c-2.9-3.9-1.8-8.1,3.8-11.5
			c9-5.4,14.4-12.6,13.8-23.5C106.8,63.6,106.4,61.8,106,59.3z"/>
		<path class="st5" d="M77.3,85.2c-4.3,0-7.3-2.8-7.5-6.9c-0.1-4.3,3-7.6,7.4-7.5c4.3,0,7.1,2.9,7.1,7.2
			C84.3,82.3,81.6,85.1,77.3,85.2z"/>
	</g>
	<text transform="matrix(1 0 0 1 176.334 101.0742)" class="st1"><tspan x="0" y="0" class="st2 st6 st7">Bibliotecas </tspan><tspan x="329" y="0" class="st8 st6 st7">Móviles</tspan></text>
</g>
<g id="Capa_2">
	<g>
		<path class="st2" d="M152,78.8c0.1,40.9-33,74.2-73.9,74.2C37.2,153,4,119.9,4,79C4,38.3,37.1,5.1,77.7,5
			C118.6,4.9,151.9,38,152,78.8z"/>
		<path class="st3" d="M77.9,13c36.2,0,65.3,29.3,65.2,65.6c0,38.7-32.6,66.3-66.9,65.6C41,143.4,12,114.3,12,78.4
			C12,41.9,41.1,13,77.9,13z"/>
		<path class="st2" d="M127.2,78.9c-0.3,28.3-22.7,49.5-51.9,49.2c-26.2-0.3-47.8-23.4-47.5-50.6c0.3-28.1,24.6-49.8,51.9-48.8
			C105.7,29.7,127.5,52.2,127.2,78.9z"/>
		<path class="st4" d="M58.9,49.3c13.7-10.9,30.4-9.8,41.2,1.8c1.4,1.5,2.6,3,3.3,5c1.4,4.2-0.5,9.5-4.2,11.2
			c-4.5,2-7.2-0.5-9.5-3.9c-1.6-2.3-2.8-5-4.7-7.1C78.3,48.6,69.9,46.4,58.9,49.3z"/>
		<path class="st4" d="M48,95.5c-11.1-12.7-8.9-33.3,4.2-42.5c3.8-2.7,7.8-3,11.6-0.2c4.1,3,4.3,7.7,0.5,11c-1.4,1.2-3,2.1-4.6,3
			C48.9,73.4,45,82.4,48,95.5z"/>
		<path class="st4" d="M93.3,107.4c-12.8,10.5-32.9,7.4-41.2-5.5c-2.3-3.6-2.2-7.2,0-10.8c2.5-4,7.3-4.6,10.6-1.3
			c1.6,1.6,2.8,3.7,4,5.6c5.6,8.8,13.3,13.2,23.9,11.7C91.2,107.1,91.8,107.3,93.3,107.4z"/>
		<path class="st4" d="M106,59.3c11.3,12.6,9.3,32.7-3.8,42.4c-4,3-10.3,2.3-13-1.4c-2.9-3.9-1.8-8.1,3.8-11.5
			c9-5.4,14.4-12.6,13.8-23.5C106.8,63.6,106.4,61.8,106,59.3z"/>
		<path class="st5" d="M77.3,85.2c-4.3,0-7.3-2.8-7.5-6.9c-0.1-4.3,3-7.6,7.4-7.5c4.3,0,7.1,2.9,7.1,7.2
			C84.3,82.3,81.6,85.1,77.3,85.2z"/>
	</g>
	<g>
		<path class="st2" d="M197.7,55.2c3.2,0,5.9,0.3,8.1,0.9c2.2,0.6,4,1.4,5.4,2.5c1.4,1.1,2.4,2.4,3.1,3.9c0.6,1.5,1,3.2,1,5.1
			c0,1-0.1,2-0.4,3c-0.3,1-0.8,1.8-1.4,2.7s-1.4,1.6-2.4,2.3c-1,0.7-2.2,1.3-3.6,1.8c3,0.7,5.3,1.9,6.7,3.6c1.4,1.6,2.2,3.8,2.2,6.4
			c0,2-0.4,3.8-1.1,5.4c-0.8,1.7-1.9,3.1-3.3,4.4c-1.5,1.2-3.3,2.2-5.4,2.9c-2.1,0.7-4.6,1.1-7.3,1.1h-18.3V55.2H197.7z M191.4,63.2
			v11.3h5.5c1.2,0,2.2-0.1,3.2-0.3c0.9-0.2,1.7-0.5,2.4-0.9c0.7-0.4,1.2-1,1.5-1.7c0.3-0.7,0.5-1.7,0.5-2.8c0-1.1-0.1-2-0.4-2.7
			c-0.3-0.7-0.7-1.3-1.3-1.7s-1.3-0.8-2.2-0.9c-0.9-0.2-1.9-0.3-3.1-0.3H191.4z M198.9,93c1.4,0,2.6-0.2,3.4-0.5
			c0.9-0.4,1.6-0.8,2.1-1.4s0.9-1.2,1-1.9c0.2-0.7,0.3-1.4,0.3-2.2c0-0.8-0.1-1.6-0.3-2.3c-0.2-0.7-0.6-1.2-1.1-1.7
			c-0.5-0.5-1.2-0.8-2.1-1.1c-0.9-0.3-2-0.4-3.3-0.4h-7.4V93H198.9z"/>
		<path class="st2" d="M232.3,59.5c0,0.8-0.2,1.5-0.5,2.2s-0.7,1.3-1.3,1.8c-0.5,0.5-1.2,0.9-1.9,1.2c-0.7,0.3-1.5,0.5-2.3,0.5
			c-0.8,0-1.5-0.2-2.2-0.5c-0.7-0.3-1.3-0.7-1.8-1.2c-0.5-0.5-1-1.1-1.3-1.8c-0.3-0.7-0.5-1.4-0.5-2.2c0-0.8,0.2-1.5,0.5-2.2
			c0.3-0.7,0.7-1.3,1.3-1.8c0.5-0.5,1.1-0.9,1.8-1.2c0.7-0.3,1.4-0.4,2.2-0.4c0.8,0,1.6,0.1,2.3,0.4c0.7,0.3,1.4,0.7,1.9,1.2
			c0.5,0.5,1,1.1,1.3,1.8C232.1,57.9,232.3,58.7,232.3,59.5z M231.3,68.4v32.7h-9.8V68.4H231.3z"/>
		<path class="st2" d="M247.9,71.9c1.3-1.2,2.6-2.2,4.1-2.9c1.5-0.7,3.2-1.1,5-1.1s3.5,0.4,5,1.1c1.5,0.8,2.8,1.8,3.9,3.2
			c1.1,1.4,1.9,3.1,2.5,5.1c0.6,2,0.9,4.2,0.9,6.6c0,2.6-0.3,5.1-1,7.2c-0.7,2.2-1.6,4-2.9,5.6c-1.2,1.5-2.7,2.7-4.4,3.6
			c-1.7,0.9-3.6,1.3-5.6,1.3c-1,0-1.9-0.1-2.6-0.3c-0.8-0.2-1.5-0.5-2.1-0.8c-0.7-0.3-1.2-0.8-1.8-1.2c-0.5-0.5-1.1-1-1.6-1.6
			l-0.3,1.6c-0.2,0.7-0.4,1.1-0.8,1.4s-0.9,0.4-1.5,0.4h-6.5V53.9h9.8V71.9z M247.9,92.2c0.7,0.8,1.5,1.4,2.4,1.7
			c0.9,0.3,1.7,0.5,2.6,0.5c0.9,0,1.8-0.2,2.6-0.5c0.8-0.3,1.4-0.9,2-1.7c0.6-0.8,1-1.8,1.3-3.1s0.5-2.9,0.5-4.8
			c0-1.6-0.1-3-0.4-4.2c-0.2-1.1-0.6-2.1-1.1-2.8c-0.5-0.7-1.1-1.2-1.8-1.6c-0.7-0.3-1.5-0.5-2.4-0.5c-1.2,0-2.2,0.3-3.1,0.8
			s-1.8,1.3-2.6,2.3V92.2z"/>
		<path class="st2" d="M284.1,53.9v47.2h-9.8V53.9H284.1z"/>
		<path class="st2" d="M301.7,59.5c0,0.8-0.2,1.5-0.5,2.2s-0.7,1.3-1.3,1.8c-0.5,0.5-1.2,0.9-1.9,1.2c-0.7,0.3-1.5,0.5-2.3,0.5
			c-0.8,0-1.5-0.2-2.2-0.5c-0.7-0.3-1.3-0.7-1.8-1.2c-0.5-0.5-1-1.1-1.3-1.8c-0.3-0.7-0.5-1.4-0.5-2.2c0-0.8,0.2-1.5,0.5-2.2
			c0.3-0.7,0.7-1.3,1.3-1.8c0.5-0.5,1.1-0.9,1.8-1.2c0.7-0.3,1.4-0.4,2.2-0.4c0.8,0,1.6,0.1,2.3,0.4c0.7,0.3,1.4,0.7,1.9,1.2
			c0.5,0.5,1,1.1,1.3,1.8C301.5,57.9,301.7,58.7,301.7,59.5z M300.7,68.4v32.7h-9.8V68.4H300.7z"/>
		<path class="st2" d="M322.6,67.9c2.5,0,4.7,0.4,6.8,1.2c2,0.8,3.8,1.9,5.2,3.3c1.5,1.4,2.6,3.2,3.4,5.3c0.8,2.1,1.2,4.4,1.2,7
			c0,2.6-0.4,5-1.2,7c-0.8,2.1-1.9,3.9-3.4,5.3c-1.5,1.5-3.2,2.6-5.2,3.4c-2,0.8-4.3,1.2-6.8,1.2c-2.5,0-4.8-0.4-6.8-1.2
			c-2-0.8-3.8-1.9-5.3-3.4c-1.5-1.5-2.6-3.2-3.4-5.3c-0.8-2.1-1.2-4.4-1.2-7c0-2.6,0.4-4.9,1.2-7c0.8-2.1,2-3.8,3.4-5.3
			c1.5-1.4,3.2-2.6,5.3-3.3C317.8,68.3,320.1,67.9,322.6,67.9z M322.6,94.3c2.2,0,3.9-0.8,5-2.4c1.1-1.6,1.6-4,1.6-7.2
			c0-3.2-0.5-5.6-1.6-7.2c-1.1-1.6-2.7-2.4-5-2.4c-2.3,0-4,0.8-5.1,2.4c-1.1,1.6-1.6,4-1.6,7.2c0,3.2,0.5,5.6,1.6,7.2
			C318.6,93.5,320.3,94.3,322.6,94.3z"/>
		<path class="st2" d="M355.1,101.6c-1.6,0-2.9-0.2-4.1-0.7c-1.2-0.5-2.2-1.1-3-1.9c-0.8-0.8-1.4-1.8-1.8-3
			c-0.4-1.2-0.6-2.5-0.6-3.9V75.2h-2.8c-0.5,0-0.9-0.2-1.3-0.5c-0.4-0.3-0.5-0.8-0.5-1.4v-3.8l5.2-1l1.9-8c0.3-1,1-1.5,2.1-1.5h5.1
			v9.5h8.1v6.7h-8.1v16.2c0,0.8,0.2,1.4,0.6,1.9c0.4,0.5,0.9,0.7,1.6,0.7c0.4,0,0.7,0,0.9-0.1c0.2-0.1,0.5-0.2,0.6-0.3
			c0.2-0.1,0.3-0.2,0.5-0.3c0.2-0.1,0.3-0.1,0.6-0.1c0.3,0,0.5,0.1,0.7,0.2c0.2,0.1,0.4,0.4,0.6,0.6l3,4.6c-1.3,0.9-2.7,1.7-4.3,2.1
			C358.4,101.3,356.8,101.6,355.1,101.6z"/>
		<path class="st2" d="M375.4,86.5c0.3,2.7,1.1,4.7,2.5,5.9s3.1,1.8,5.2,1.8c1.1,0,2.1-0.1,2.9-0.4c0.8-0.3,1.5-0.6,2.2-0.9
			c0.6-0.3,1.2-0.6,1.8-0.9c0.5-0.3,1.1-0.4,1.7-0.4c0.8,0,1.4,0.3,1.8,0.9l2.8,3.5c-1,1.2-2.1,2.1-3.3,2.8
			c-1.2,0.7-2.4,1.3-3.6,1.7c-1.2,0.4-2.5,0.7-3.7,0.9c-1.2,0.2-2.4,0.2-3.5,0.2c-2.3,0-4.4-0.4-6.4-1.1c-2-0.7-3.8-1.9-5.3-3.3
			c-1.5-1.5-2.7-3.3-3.6-5.5c-0.9-2.2-1.3-4.7-1.3-7.6c0-2.2,0.4-4.3,1.1-6.2c0.7-2,1.8-3.7,3.2-5.1c1.4-1.5,3.1-2.6,5.1-3.5
			c2-0.9,4.2-1.3,6.7-1.3c2.2,0,4.1,0.3,5.9,1c1.8,0.7,3.3,1.6,4.6,2.9c1.3,1.3,2.3,2.9,3,4.7s1.1,4,1.1,6.3c0,0.7,0,1.3-0.1,1.8
			c-0.1,0.5-0.2,0.8-0.3,1.1c-0.2,0.3-0.4,0.5-0.7,0.6c-0.3,0.1-0.6,0.2-1.1,0.2H375.4z M387.6,80.8c0-0.8-0.1-1.5-0.3-2.3
			c-0.2-0.7-0.5-1.4-1-2c-0.5-0.6-1-1-1.8-1.4c-0.7-0.4-1.6-0.5-2.7-0.5c-1.8,0-3.3,0.5-4.3,1.6c-1.1,1.1-1.7,2.6-2.1,4.6H387.6z"/>
		<path class="st2" d="M425.3,76.2c-0.3,0.4-0.6,0.6-0.9,0.9c-0.3,0.2-0.7,0.3-1.2,0.3c-0.5,0-0.9-0.1-1.3-0.3s-0.8-0.5-1.3-0.8
			c-0.5-0.3-1-0.5-1.7-0.8c-0.7-0.2-1.5-0.3-2.4-0.3c-1.2,0-2.2,0.2-3.1,0.7c-0.9,0.4-1.6,1.1-2.2,1.9c-0.6,0.8-1,1.8-1.3,3
			c-0.3,1.2-0.4,2.5-0.4,4c0,3.1,0.6,5.5,1.8,7.2c1.2,1.7,2.9,2.5,5,2.5c1.1,0,2-0.1,2.7-0.4c0.7-0.3,1.2-0.6,1.7-0.9
			c0.5-0.3,0.9-0.7,1.3-1c0.4-0.3,0.9-0.4,1.5-0.4c0.8,0,1.4,0.3,1.8,0.9l2.8,3.5c-1,1.2-2.1,2.1-3.2,2.8c-1.1,0.7-2.3,1.3-3.4,1.7
			c-1.2,0.4-2.3,0.7-3.5,0.9c-1.2,0.2-2.3,0.2-3.4,0.2c-2,0-3.9-0.4-5.7-1.1c-1.8-0.8-3.4-1.9-4.8-3.3c-1.4-1.4-2.5-3.2-3.3-5.3
			c-0.8-2.1-1.2-4.5-1.2-7.2c0-2.4,0.4-4.6,1.1-6.6c0.7-2,1.7-3.8,3.1-5.3c1.4-1.5,3.1-2.7,5.1-3.5c2-0.9,4.4-1.3,7-1.3
			c2.6,0,4.8,0.4,6.7,1.2c1.9,0.8,3.7,2,5.2,3.6L425.3,76.2z"/>
		<path class="st2" d="M431.2,72.9c2-1.7,4.2-3,6.6-3.9c2.4-0.9,5-1.3,7.7-1.3c2,0,3.8,0.3,5.3,1c1.6,0.6,2.9,1.5,4,2.7
			c1.1,1.1,1.9,2.5,2.5,4.1c0.6,1.6,0.9,3.3,0.9,5.2v20.4h-4.5c-0.9,0-1.6-0.1-2.1-0.4c-0.5-0.3-0.9-0.8-1.2-1.6l-0.7-1.8
			c-0.8,0.7-1.6,1.3-2.4,1.8c-0.8,0.5-1.5,1-2.3,1.3c-0.8,0.4-1.7,0.6-2.6,0.8c-0.9,0.2-1.9,0.3-3,0.3c-1.5,0-2.8-0.2-4.1-0.6
			c-1.2-0.4-2.3-1-3.1-1.7s-1.5-1.7-2-2.8c-0.5-1.1-0.7-2.4-0.7-3.9c0-1.2,0.3-2.4,0.9-3.6s1.6-2.3,3.1-3.3c1.4-1,3.4-1.8,5.9-2.5
			c2.5-0.7,5.6-1,9.3-1.1v-1.4c0-1.9-0.4-3.3-1.2-4.1c-0.8-0.9-1.9-1.3-3.4-1.3c-1.2,0-2.1,0.1-2.8,0.4c-0.7,0.3-1.4,0.5-2,0.9
			c-0.6,0.3-1.1,0.6-1.7,0.9c-0.5,0.3-1.2,0.4-2,0.4c-0.7,0-1.2-0.2-1.7-0.5c-0.5-0.3-0.8-0.7-1.1-1.2L431.2,72.9z M448.8,87.8
			c-2,0.1-3.6,0.3-4.8,0.5c-1.3,0.3-2.3,0.6-3,0.9s-1.2,0.8-1.5,1.3c-0.3,0.5-0.4,1-0.4,1.6c0,1.1,0.3,1.9,0.9,2.3
			c0.6,0.5,1.5,0.7,2.7,0.7c1.3,0,2.4-0.2,3.3-0.7s1.9-1.2,2.9-2.1V87.8z"/>
		<path class="st2" d="M485.3,75.6c-0.3,0.4-0.5,0.7-0.8,0.9c-0.3,0.2-0.6,0.3-1.1,0.3c-0.5,0-0.9-0.1-1.4-0.3
			c-0.5-0.2-1-0.4-1.5-0.6s-1.1-0.4-1.8-0.6c-0.7-0.2-1.4-0.3-2.3-0.3c-1.2,0-2.2,0.2-2.9,0.7c-0.7,0.5-1,1.1-1,2
			c0,0.6,0.2,1.1,0.6,1.5c0.4,0.4,1,0.8,1.7,1.1c0.7,0.3,1.5,0.6,2.4,0.9s1.8,0.6,2.8,0.9c0.9,0.3,1.9,0.7,2.8,1.2
			c0.9,0.5,1.7,1,2.4,1.7s1.3,1.5,1.7,2.4c0.4,0.9,0.6,2.1,0.6,3.4c0,1.6-0.3,3.1-0.9,4.5c-0.6,1.4-1.5,2.5-2.6,3.5
			c-1.2,1-2.6,1.8-4.3,2.3s-3.7,0.8-5.9,0.8c-1.1,0-2.2-0.1-3.3-0.3c-1.1-0.2-2.2-0.5-3.2-0.9c-1-0.4-2-0.8-2.9-1.3
			c-0.9-0.5-1.6-1-2.3-1.6l2.3-3.6c0.3-0.4,0.6-0.8,1-1c0.4-0.2,0.9-0.4,1.5-0.4c0.6,0,1.1,0.1,1.5,0.4c0.5,0.3,0.9,0.5,1.5,0.8
			c0.5,0.3,1.1,0.6,1.8,0.8c0.7,0.3,1.6,0.4,2.7,0.4c0.8,0,1.4-0.1,1.9-0.2c0.5-0.2,0.9-0.4,1.3-0.6c0.3-0.3,0.5-0.6,0.7-0.9
			c0.1-0.3,0.2-0.7,0.2-1c0-0.7-0.2-1.2-0.7-1.6c-0.4-0.4-1-0.8-1.7-1.1c-0.7-0.3-1.5-0.6-2.4-0.9c-0.9-0.3-1.8-0.6-2.8-0.9
			c-0.9-0.3-1.9-0.7-2.8-1.2c-0.9-0.5-1.7-1.1-2.4-1.8c-0.7-0.7-1.3-1.6-1.7-2.7c-0.4-1-0.7-2.3-0.7-3.8c0-1.4,0.3-2.7,0.8-4
			c0.5-1.2,1.3-2.3,2.4-3.3c1.1-0.9,2.4-1.7,4-2.3c1.6-0.6,3.5-0.8,5.7-0.8c1.2,0,2.3,0.1,3.4,0.3c1.1,0.2,2.1,0.5,3.1,0.9
			c1,0.4,1.8,0.8,2.6,1.3c0.8,0.5,1.5,1.1,2.1,1.7L485.3,75.6z"/>
		<path class="st8" d="M559.9,55.2v45.9h-9.4V74.7c0-0.6,0-1.3,0-2c0-0.7,0.1-1.4,0.2-2.2l-12.2,23.6c-0.4,0.7-0.9,1.3-1.5,1.7
			c-0.6,0.4-1.4,0.6-2.2,0.6h-1.4c-0.8,0-1.5-0.2-2.2-0.6c-0.6-0.4-1.1-0.9-1.5-1.7l-12.2-23.7c0.1,0.8,0.1,1.5,0.2,2.2
			c0,0.7,0.1,1.4,0.1,2v26.4h-9.4V55.2h8.1c0.5,0,0.9,0,1.2,0c0.3,0,0.7,0.1,0.9,0.2c0.3,0.1,0.5,0.3,0.7,0.5
			c0.2,0.2,0.4,0.5,0.6,0.9l11.8,23.3c0.4,0.8,0.8,1.6,1.2,2.5c0.4,0.9,0.8,1.7,1.1,2.6c0.4-0.9,0.7-1.8,1.1-2.7
			c0.4-0.9,0.8-1.7,1.2-2.5l11.8-23.2c0.2-0.4,0.4-0.7,0.6-0.9c0.2-0.2,0.5-0.4,0.7-0.5c0.3-0.1,0.6-0.2,0.9-0.2c0.3,0,0.8,0,1.2,0
			H559.9z"/>
		<path class="st8" d="M581.7,67.9c2.5,0,4.7,0.4,6.8,1.2c2,0.8,3.8,1.9,5.2,3.3c1.5,1.4,2.6,3.2,3.4,5.3c0.8,2.1,1.2,4.4,1.2,7
			c0,2.6-0.4,5-1.2,7c-0.8,2.1-1.9,3.9-3.4,5.3c-1.5,1.5-3.2,2.6-5.2,3.4c-2,0.8-4.3,1.2-6.8,1.2c-2.5,0-4.8-0.4-6.8-1.2
			c-2-0.8-3.8-1.9-5.3-3.4c-1.5-1.5-2.6-3.2-3.4-5.3c-0.8-2.1-1.2-4.4-1.2-7c0-2.6,0.4-4.9,1.2-7c0.8-2.1,2-3.8,3.4-5.3
			c1.5-1.4,3.2-2.6,5.3-3.3C576.9,68.3,579.2,67.9,581.7,67.9z M581.7,94.3c2.2,0,3.9-0.8,5-2.4c1.1-1.6,1.6-4,1.6-7.2
			c0-3.2-0.5-5.6-1.6-7.2c-1.1-1.6-2.7-2.4-5-2.4c-2.3,0-4,0.8-5.1,2.4c-1.1,1.6-1.6,4-1.6,7.2c0,3.2,0.5,5.6,1.6,7.2
			C577.7,93.5,579.4,94.3,581.7,94.3z M594.2,54.7L586,63c-0.5,0.5-0.9,0.8-1.4,1c-0.4,0.2-1,0.3-1.8,0.3H577l4.3-7.7
			c0.4-0.6,0.8-1.1,1.3-1.4c0.5-0.3,1.2-0.5,2.2-0.5H594.2z"/>
		<path class="st8" d="M632.9,68.4l-12.7,32.7h-8.9l-12.7-32.7h8.1c0.7,0,1.3,0.2,1.7,0.5c0.5,0.3,0.8,0.7,1,1.2l4.5,14.6
			c0.4,1.2,0.8,2.4,1.1,3.5c0.3,1.1,0.6,2.3,0.8,3.4c0.5-2.3,1.1-4.6,1.9-6.9l4.7-14.6c0.2-0.5,0.5-0.9,0.9-1.2
			c0.5-0.3,1-0.5,1.6-0.5H632.9z"/>
		<path class="st8" d="M647.1,59.5c0,0.8-0.2,1.5-0.5,2.2s-0.7,1.3-1.3,1.8c-0.5,0.5-1.2,0.9-1.9,1.2c-0.7,0.3-1.5,0.5-2.3,0.5
			c-0.8,0-1.5-0.2-2.2-0.5c-0.7-0.3-1.3-0.7-1.8-1.2c-0.5-0.5-1-1.1-1.3-1.8c-0.3-0.7-0.5-1.4-0.5-2.2c0-0.8,0.2-1.5,0.5-2.2
			c0.3-0.7,0.7-1.3,1.3-1.8c0.5-0.5,1.1-0.9,1.8-1.2c0.7-0.3,1.4-0.4,2.2-0.4c0.8,0,1.6,0.1,2.3,0.4c0.7,0.3,1.4,0.7,1.9,1.2
			c0.5,0.5,1,1.1,1.3,1.8C646.9,57.9,647.1,58.7,647.1,59.5z M646.1,68.4v32.7h-9.8V68.4H646.1z"/>
		<path class="st8" d="M662.7,53.9v47.2h-9.8V53.9H662.7z"/>
		<path class="st8" d="M677.3,86.5c0.3,2.7,1.1,4.7,2.5,5.9s3.1,1.8,5.2,1.8c1.1,0,2.1-0.1,2.9-0.4c0.8-0.3,1.5-0.6,2.2-0.9
			c0.6-0.3,1.2-0.6,1.8-0.9c0.5-0.3,1.1-0.4,1.7-0.4c0.8,0,1.4,0.3,1.8,0.9l2.8,3.5c-1,1.2-2.1,2.1-3.3,2.8
			c-1.2,0.7-2.4,1.3-3.6,1.7c-1.2,0.4-2.5,0.7-3.7,0.9c-1.2,0.2-2.4,0.2-3.5,0.2c-2.3,0-4.4-0.4-6.4-1.1c-2-0.7-3.8-1.9-5.3-3.3
			c-1.5-1.5-2.7-3.3-3.6-5.5c-0.9-2.2-1.3-4.7-1.3-7.6c0-2.2,0.4-4.3,1.1-6.2c0.7-2,1.8-3.7,3.2-5.1c1.4-1.5,3.1-2.6,5.1-3.5
			c2-0.9,4.2-1.3,6.7-1.3c2.2,0,4.1,0.3,5.9,1c1.8,0.7,3.3,1.6,4.6,2.9c1.3,1.3,2.3,2.9,3,4.7s1.1,4,1.1,6.3c0,0.7,0,1.3-0.1,1.8
			c-0.1,0.5-0.2,0.8-0.3,1.1c-0.2,0.3-0.4,0.5-0.7,0.6c-0.3,0.1-0.6,0.2-1.1,0.2H677.3z M689.6,80.8c0-0.8-0.1-1.5-0.3-2.3
			c-0.2-0.7-0.5-1.4-1-2c-0.5-0.6-1-1-1.8-1.4c-0.7-0.4-1.6-0.5-2.7-0.5c-1.8,0-3.3,0.5-4.3,1.6c-1.1,1.1-1.7,2.6-2.1,4.6H689.6z"/>
		<path class="st8" d="M724,75.6c-0.3,0.4-0.5,0.7-0.8,0.9c-0.3,0.2-0.6,0.3-1.1,0.3c-0.5,0-0.9-0.1-1.4-0.3c-0.5-0.2-1-0.4-1.5-0.6
			s-1.1-0.4-1.8-0.6c-0.7-0.2-1.4-0.3-2.3-0.3c-1.2,0-2.2,0.2-2.9,0.7c-0.7,0.5-1,1.1-1,2c0,0.6,0.2,1.1,0.6,1.5
			c0.4,0.4,1,0.8,1.7,1.1c0.7,0.3,1.5,0.6,2.4,0.9s1.8,0.6,2.8,0.9c0.9,0.3,1.9,0.7,2.8,1.2c0.9,0.5,1.7,1,2.4,1.7s1.3,1.5,1.7,2.4
			c0.4,0.9,0.6,2.1,0.6,3.4c0,1.6-0.3,3.1-0.9,4.5c-0.6,1.4-1.5,2.5-2.6,3.5c-1.2,1-2.6,1.8-4.3,2.3s-3.7,0.8-5.9,0.8
			c-1.1,0-2.2-0.1-3.3-0.3c-1.1-0.2-2.2-0.5-3.2-0.9c-1-0.4-2-0.8-2.9-1.3c-0.9-0.5-1.6-1-2.3-1.6l2.3-3.6c0.3-0.4,0.6-0.8,1-1
			c0.4-0.2,0.9-0.4,1.5-0.4c0.6,0,1.1,0.1,1.5,0.4c0.5,0.3,0.9,0.5,1.5,0.8c0.5,0.3,1.1,0.6,1.8,0.8c0.7,0.3,1.6,0.4,2.7,0.4
			c0.8,0,1.4-0.1,1.9-0.2c0.5-0.2,0.9-0.4,1.3-0.6c0.3-0.3,0.5-0.6,0.7-0.9c0.1-0.3,0.2-0.7,0.2-1c0-0.7-0.2-1.2-0.7-1.6
			c-0.4-0.4-1-0.8-1.7-1.1c-0.7-0.3-1.5-0.6-2.4-0.9c-0.9-0.3-1.8-0.6-2.8-0.9c-0.9-0.3-1.9-0.7-2.8-1.2c-0.9-0.5-1.7-1.1-2.4-1.8
			c-0.7-0.7-1.3-1.6-1.7-2.7c-0.4-1-0.7-2.3-0.7-3.8c0-1.4,0.3-2.7,0.8-4c0.5-1.2,1.3-2.3,2.4-3.3c1.1-0.9,2.4-1.7,4-2.3
			c1.6-0.6,3.5-0.8,5.7-0.8c1.2,0,2.3,0.1,3.4,0.3c1.1,0.2,2.1,0.5,3.1,0.9c1,0.4,1.8,0.8,2.6,1.3c0.8,0.5,1.5,1.1,2.1,1.7L724,75.6
			z"/>
	</g>
</g>
</svg>
